<?xml version="1.0"?>
<svg xmlns="http://www.w3.org/2000/svg" xmlns:xlink="http://www.w3.org/1999/xlink" xmlns:svgjs="http://svgjs.com/svgjs" version="1.1" width="512" height="512" x="0" y="0" viewBox="0 0 512 512" style="enable-background:new 0 0 512 512" xml:space="preserve"><g><linearGradient xmlns="http://www.w3.org/2000/svg" id="linear-gradient" gradientUnits="userSpaceOnUse" x1="256" x2="256" y1="472" y2="40"><stop stop-opacity="1" stop-color="#12bee5" offset="0"/><stop stop-opacity="1" stop-color="#00c0d0" offset="0"/><stop stop-opacity="1" stop-color="#11bd56" offset="1"/></linearGradient><path xmlns="http://www.w3.org/2000/svg" d="m488 344v-232a40.045 40.045 0 0 0 -40-40h-16v-8a24 24 0 0 0 -48 0v8h-32v-8a24 24 0 0 0 -48 0v8h-32v-8a24 24 0 0 0 -48 0v8h-32v-8a24 24 0 0 0 -48 0v8h-32v-8a24 24 0 0 0 -48 0v8h-16a40.045 40.045 0 0 0 -40 40v304a40.045 40.045 0 0 0 40 40h328v-.043a79.956 79.956 0 0 0 111.956-111.957zm-88-280a8 8 0 0 1 16 0v32a8 8 0 0 1 -16 0zm-80 0a8 8 0 0 1 16 0v32a8 8 0 0 1 -16 0zm-80 0a8 8 0 0 1 16 0v32a8 8 0 0 1 -16 0zm-80 0a8 8 0 0 1 16 0v32a8 8 0 0 1 -16 0zm-80 0a8 8 0 0 1 16 0v32a8 8 0 0 1 -16 0zm-32 24h16v8a24 24 0 0 0 48 0v-8h32v8a24 24 0 0 0 48 0v-8h32v8a24 24 0 0 0 48 0v-8h32v8a24 24 0 0 0 48 0v-8h32v8a24 24 0 0 0 48 0v-8h16a24.028 24.028 0 0 1 24 24v24h-448v-24a24.028 24.028 0 0 1 24-24zm-24 328v-264h448v176.043a79.669 79.669 0 0 0 -32-14.433v-41.61a8 8 0 0 0 -8-8h-48a8 8 0 0 0 -8 8v48a7.976 7.976 0 0 0 2.779 6.053 80.652 80.652 0 0 0 -20.726 20.727 7.974 7.974 0 0 0 -6.053-2.78h-48a8 8 0 0 0 -8 8v48a8 8 0 0 0 8 8h41.61a79.657 79.657 0 0 0 14.434 32h-312.044a24.028 24.028 0 0 1 -24-24zm368-104v-32h32v32zm-48 80h-32v-32h32zm80 64a64 64 0 1 1 64-64 64.072 64.072 0 0 1 -64 64zm-312-272h-48a8 8 0 0 0 -8 8v48a8 8 0 0 0 8 8h48a8 8 0 0 0 8-8v-48a8 8 0 0 0 -8-8zm-8 48h-32v-32h32zm88-48h-48a8 8 0 0 0 -8 8v48a8 8 0 0 0 8 8h48a8 8 0 0 0 8-8v-48a8 8 0 0 0 -8-8zm-8 48h-32v-32h32zm88-48h-48a8 8 0 0 0 -8 8v48a8 8 0 0 0 8 8h48a8 8 0 0 0 8-8v-48a8 8 0 0 0 -8-8zm-8 48h-32v-32h32zm40 16h48a8 8 0 0 0 8-8v-48a8 8 0 0 0 -8-8h-48a8 8 0 0 0 -8 8v48a8 8 0 0 0 8 8zm8-48h32v32h-32zm72 48h48a8 8 0 0 0 8-8v-48a8 8 0 0 0 -8-8h-48a8 8 0 0 0 -8 8v48a8 8 0 0 0 8 8zm8-48h32v32h-32zm-280 64h-48a8 8 0 0 0 -8 8v48a8 8 0 0 0 8 8h48a8 8 0 0 0 8-8v-48a8 8 0 0 0 -8-8zm-8 48h-32v-32h32zm88-48h-48a8 8 0 0 0 -8 8v48a8 8 0 0 0 8 8h48a8 8 0 0 0 8-8v-48a8 8 0 0 0 -8-8zm-8 48h-32v-32h32zm88-48h-48a8 8 0 0 0 -8 8v48a8 8 0 0 0 8 8h48a8 8 0 0 0 8-8v-48a8 8 0 0 0 -8-8zm-8 48h-32v-32h32zm40 16h48a8 8 0 0 0 8-8v-48a8 8 0 0 0 -8-8h-48a8 8 0 0 0 -8 8v48a8 8 0 0 0 8 8zm8-48h32v32h-32zm-200 64h-48a8 8 0 0 0 -8 8v48a8 8 0 0 0 8 8h48a8 8 0 0 0 8-8v-48a8 8 0 0 0 -8-8zm-8 48h-32v-32h32zm88-48h-48a8 8 0 0 0 -8 8v48a8 8 0 0 0 8 8h48a8 8 0 0 0 8-8v-48a8 8 0 0 0 -8-8zm-8 48h-32v-32h32zm88-48h-48a8 8 0 0 0 -8 8v48a8 8 0 0 0 8 8h48a8 8 0 0 0 8-8v-48a8 8 0 0 0 -8-8zm-8 48h-32v-32h32zm190.656-19.562-32 48a8 8 0 0 1 -5.868 3.523q-.395.039-.788.039a8 8 0 0 1 -5.657-2.343l-16-16a8 8 0 0 1 11.314-11.314l9.1 9.1 26.587-39.881a8 8 0 0 1 13.312 8.876z" fill="url(#linear-gradient)" data-original="url(#linear-gradient)" style=""/></g></svg>
