<?xml version="1.0"?>
<svg xmlns="http://www.w3.org/2000/svg" xmlns:xlink="http://www.w3.org/1999/xlink" xmlns:svgjs="http://svgjs.com/svgjs" version="1.1" width="512" height="512" x="0" y="0" viewBox="0 0 512 512" style="enable-background:new 0 0 512 512" xml:space="preserve" class=""><g><defs xmlns="http://www.w3.org/2000/svg"><linearGradient id="linear-gradient" x1="256.032" y1="496" x2="256.032" y2="16" gradientUnits="userSpaceOnUse"><stop stop-opacity="1" stop-color="#12bee5" offset="0"/><stop stop-opacity="1" stop-color="#00c0d0" offset="0"/><stop stop-opacity="1" stop-color="#11bd56" offset="1"/></linearGradient></defs><path xmlns="http://www.w3.org/2000/svg" d="M338.343,242.343a8,8,0,0,0,11.314,11.314l16-16a8,8,0,0,0,0-11.314l-16-16a8,8,0,0,0-11.314,11.314L340.687,224H254.624A24.114,24.114,0,0,0,240,209.376V155.313l2.343,2.344a8,8,0,0,0,11.314-11.314l-16-16a8,8,0,0,0-11.314,0l-16,16a8,8,0,0,0,11.314,11.314L224,155.313v54.063A24,24,0,1,0,254.624,240h86.063ZM232,240a8,8,0,1,1,8-8A8.009,8.009,0,0,1,232,240Zm255.771,72.808a8,8,0,0,0-14.931-1.363c-5.395,11.23-17.928,22.859-26.795,30.159a207.656,207.656,0,0,0-11.782-33.684,216.024,216.024,0,0,0-355-228.655A216.072,216.072,0,0,0,297.916,437.756a97.538,97.538,0,0,0,13.015,23.312C328.645,484.247,355.92,496,392,496s63.355-11.753,81.069-34.932C513.2,408.55,488.828,316.693,487.771,312.808ZM232,432C121.72,432,32,342.28,32,232S121.72,32,232,32s200,89.72,200,200a199.692,199.692,0,0,1-8.09,56.472A132.1,132.1,0,0,0,411.665,271.8,185,185,0,0,0,416,232c0-101.458-82.542-184-184-184S48,130.542,48,232s82.542,184,184,184a183.372,183.372,0,0,0,57.873-9.3A152.474,152.474,0,0,0,293,422.53,199.581,199.581,0,0,1,232,432Zm64.229-119.192c-.651,2.392-10.139,38.147-7.965,77.531A166.887,166.887,0,0,1,240,399.813V392a8,8,0,0,0-16,0v7.805a167.354,167.354,0,0,1-104.948-43.544l5.468-5.467a8,8,0,0,0-11.314-11.314l-5.467,5.468A167.354,167.354,0,0,1,64.195,240H72a8,8,0,0,0,0-16H64.195a167.354,167.354,0,0,1,43.544-104.948l5.467,5.468a8,8,0,0,0,11.314-11.314l-5.468-5.467A167.354,167.354,0,0,1,224,64.195V72a8,8,0,0,0,16,0V64.195a167.354,167.354,0,0,1,104.948,43.544l-5.468,5.467a8,8,0,0,0,11.314,11.314l5.467-5.468A167.354,167.354,0,0,1,399.805,224H392a8,8,0,0,0,0,16h7.794a169.381,169.381,0,0,1-1.887,18.492c-.33-.264-.651-.538-.985-.8a8,8,0,0,0-9.844,0c-30.316,23.662-43.9,63.522-49.123,83.91-8.868-7.3-21.4-18.929-26.795-30.159a8,8,0,0,0-14.931,1.363Zm79.845,160.985C370.716,467.543,368,456.173,368,440c0-26.065,15.149-52.8,24.008-66.21C400.866,387.172,416,413.86,416,440c0,16.173-2.716,27.543-8.074,33.793C404.3,478.028,399.236,480,392,480S379.7,478.028,376.074,473.793Zm84.282-22.44c-8.583,11.231-20.147,19.163-34.512,23.8Q431.984,461.8,432,440c0-42.32-32.375-83.275-33.753-85a8,8,0,0,0-12.494,0C384.375,356.725,352,397.68,352,440q0,21.795,6.156,35.15c-14.354-4.63-25.91-12.553-34.49-23.769C298.09,417.949,303.121,363,307.946,334.85c12.891,15,29.634,26.706,30.576,27.359a8,8,0,0,0,12.46-5.308c.088-.552,8.824-53.024,41.017-82.431,32.1,29.343,40.931,81.884,41.019,82.431a8,8,0,0,0,12.46,5.308c.942-.654,17.695-12.369,30.588-27.373C480.906,362.96,485.956,417.854,460.356,451.353Z" style="fill:url(#linear-gradient)" fill=""/></g></svg>
