<svg id="Layer_1" enable-background="new 0 0 512.002 512.002" height="512" viewBox="0 0 512.002 512.002" width="512" xmlns="http://www.w3.org/2000/svg"><g><g clip-rule="evenodd" fill-rule="evenodd"><g><path d="m146.004 110.003c5.499 0 10-4.501 10-10v-90.003l-100.003 100.003z" fill="#e8eaf0"/><path d="m156.004 100.003c0 5.499-4.501 10-10 10h-90.003v341.998c0 5.5 4.502 10 10 10h340c5.5 0 10-4.5 10-10v-432.001c0-5.497-4.5-10-10-10h-249.997z" fill="#fff"/></g><g><path d="m276.001 302.002h160c11 0 20 9 20 20v160c0 11-9 20-20 20h-160c-11 0-20-9-20-20v-160c0-11 9-20 20-20z" fill="#88df8e"/><path d="m381.861 361.195c7.809-7.81 20.472-7.81 28.281 0 7.809 7.809 7.809 20.472 0 28.281l-53.333 53.333c-7.81 7.809-20.472 7.809-28.281 0l-26.667-26.667c-7.81-7.81-7.81-20.472 0-28.281 7.809-7.809 20.472-7.809 28.281 0l12.526 12.526z" fill="#fff"/></g></g><g><path d="m356.001 190.006h-195.003c-5.523 0-10 4.477-10 10s4.477 10 10 10h195.003c5.523 0 10-4.477 10-10s-4.477-10-10-10z"/><path d="m356.001 235.008h-240c-5.523 0-10 4.477-10 10s4.477 10 10 10h240c5.523 0 10-4.477 10-10s-4.477-10-10-10z"/><path d="m116.001 165.005h240c5.523 0 10-4.477 10-10s-4.477-10-10-10h-240c-5.523 0-10 4.477-10 10s4.477 10 10 10z"/><path d="m216 280.009h-100c-5.523 0-10 4.477-10 10s4.477 10 10 10h100c5.523 0 10-4.477 10-10s-4.477-10-10-10z"/><path d="m176.001 325.011h-60c-5.523 0-10 4.477-10 10s4.477 10 10 10h60c5.523 0 10-4.477 10-10s-4.477-10-10-10z"/><path d="m116.001 210.006c5.523 0 10-4.477 10-10s-4.477-10-10-10h-.007c-5.523 0-9.996 4.477-9.996 10s4.48 10 10.003 10z"/><path d="m396.001 345.337c-8.013 0-15.546 3.121-21.212 8.786l-32.121 32.122-5.455-5.456c-5.666-5.666-13.199-8.786-21.212-8.786s-15.545 3.12-21.211 8.786-8.786 13.199-8.786 21.212 3.121 15.546 8.786 21.211l26.667 26.667c5.849 5.849 13.529 8.772 21.211 8.771 7.681 0 15.365-2.924 21.212-8.771l53.333-53.333c11.696-11.696 11.696-30.728 0-42.423-5.666-5.665-13.199-8.786-21.212-8.786zm7.069 37.068-53.333 53.333c-3.899 3.898-10.242 3.899-14.139 0l-26.667-26.667c-1.888-1.888-2.928-4.398-2.928-7.069 0-2.67 1.04-5.181 2.928-7.069s4.398-2.928 7.069-2.928 5.182 1.04 7.069 2.928l12.526 12.526c1.875 1.875 4.419 2.929 7.071 2.929s5.196-1.054 7.071-2.929l39.192-39.192c1.888-1.889 4.399-2.928 7.069-2.928 2.671 0 5.181 1.04 7.069 2.928 3.902 3.897 3.902 10.24.003 14.138z"/><path d="m436.001 292.002h-10v-272.002c0-11.028-8.972-20-20-20h-249.997c-2.652 0-5.196 1.054-7.071 2.929l-100.003 100.003c-1.875 1.875-2.929 4.419-2.929 7.071v341.997c0 11.028 8.972 20 20 20h180.001v10.001c0 16.542 13.458 30 30 30h160c16.542 0 30-13.458 30-30v-160c-.001-16.541-13.459-29.999-30.001-29.999zm-289.997-257.86v65.861h-65.861zm-80.003 417.858v-331.997h80.002c11.028 0 20-8.972 20-20v-80.003h239.997v272.002h-130c-16.542 0-30 13.458-30 30v129.998zm380 30.002c0 5.514-4.486 10-10 10h-160c-5.514 0-10-4.486-10-10v-160c0-5.514 4.486-10 10-10h160c5.514 0 10 4.486 10 10z"/></g></g></svg>