<svg id="Capa_1" enable-background="new 0 0 512 512" height="512" viewBox="0 0 512 512" width="512" xmlns="http://www.w3.org/2000/svg"><g><g><path clip-rule="evenodd" d="m72.745 276.48-20.216 20.183c-4.191 4.167-4.219 10.998-.028 15.194l8.211 8.249c-2.945 5.499-5.323 11.339-7.05 17.433l-11.835-.028c-5.918 0-10.759 4.819-10.759 10.743l-.057 28.573c-.028 5.924 4.813 10.772 10.703 10.772l12.288.028c1.784 5.924 4.162 11.594 7.05 16.923l-8.749 8.759c-4.191 4.167-4.219 10.998-.028 15.194l20.131 20.268c4.191 4.167 11.014 4.195 15.205.028l8.777-8.759c5.295 2.92 10.958 5.329 16.847 7.115v12.302c-.028 5.924 4.813 10.772 10.703 10.8l28.569.057c5.889 0 10.731-4.819 10.759-10.743l.028-11.849c6.088-1.729 11.92-4.082 17.413-6.973l8.211 8.249c4.162 4.167 11.014 4.195 15.205.028l20.216-20.183c4.191-4.167 4.191-11.027.028-15.222l-7.758-7.795c3.171-5.613 5.748-11.594 7.673-17.858l10.759.028c5.918 0 10.759-4.819 10.759-10.743l.057-28.573c.028-5.924-4.813-10.772-10.731-10.8h-10.306c-1.812-6.491-4.36-12.671-7.503-18.454l7.248-7.228c4.191-4.167 4.191-11.027.028-15.194l-20.131-20.268c-4.191-4.195-11.014-4.195-15.205-.028l-7.248 7.228c-5.776-3.175-11.92-5.726-18.404-7.569l.028-10.346c.028-5.896-4.813-10.743-10.703-10.772l-28.569-.057c-5.918 0-10.759 4.819-10.759 10.743l-.028 10.772c-6.257 1.899-12.26 4.45-17.866 7.597l-7.758-7.795c-4.191-4.196-11.015-4.196-15.205-.029z" fill="#838383" fill-rule="evenodd"/></g><g><path clip-rule="evenodd" d="m154.262 384.764c-1.557 16.469-5.238 31.918-10.59 45.695-5.04 12.869-11.524 24.293-19.141 33.761-1.472 1.814-3.001 3.572-4.559 5.244 1.218.51 2.577.765 3.964.794l28.569.057c4.219 0 7.9-2.466 9.655-6.038.708-1.417 1.104-3.033 1.104-4.706l.028-11.849c6.088-1.729 11.92-4.082 17.413-6.973l8.211 8.249c4.162 4.167 11.014 4.195 15.205.028l20.216-20.183c4.191-4.167 4.191-11.027.028-15.222l-7.758-7.795c3.171-5.613 5.748-11.594 7.673-17.858l10.759.028c5.918 0 10.759-4.819 10.759-10.743l.057-28.573c.028-5.924-4.813-10.772-10.731-10.8h-10.306c-1.812-6.491-4.36-12.671-7.503-18.454l7.248-7.228c4.191-4.167 4.191-11.027.028-15.194l-20.131-20.268c-4.191-4.195-11.014-4.195-15.205-.028l-7.248 7.228c-5.776-3.175-11.92-5.726-18.404-7.569l.028-10.346c.028-5.896-4.813-10.743-10.703-10.772l-28.569-.057c-2.407 0-4.672.794-6.456 2.183-.934.68-1.755 1.531-2.407 2.494 18.942 17.66 32.845 46.347 37.715 80.136 1.416.935 2.775 1.984 3.992 3.175 5.153 4.961 8.353 11.906 8.324 19.616s-3.228 14.655-8.409 19.587c-.874.85-1.837 1.673-2.856 2.381z" fill="#595959" fill-rule="evenodd"/></g><g><path clip-rule="evenodd" d="m138.491 335.611c-14.978-.028-27.125 12.104-27.153 27.071-.028 14.995 12.062 27.156 27.04 27.184 14.978.057 27.125-12.076 27.153-27.071.028-14.966-12.09-27.155-27.04-27.184z" fill="#f9f7f7" fill-rule="evenodd"/></g><g><path clip-rule="evenodd" d="m141.35 362.767c0 10.63-6.144 19.814-15.063 24.236 3.653 1.843 7.758 2.863 12.09 2.863 5.918.028 11.411-1.871 15.884-5.102 1.019-.709 1.982-1.531 2.86-2.381 5.182-4.932 8.381-11.877 8.409-19.587s-3.171-14.655-8.324-19.616c-1.218-1.191-2.577-2.239-3.992-3.175-4.247-2.778-9.287-4.365-14.723-4.394-4.36 0-8.466 1.02-12.09 2.835 8.89 4.45 14.978 13.663 14.949 24.321z" fill="#e2e2e2" fill-rule="evenodd"/></g><g><path clip-rule="evenodd" d="m223.066 394.26h54.732 54.702c0-88.073 85.113-99.468 85-194.145-.085-90.255-69.908-134.646-139.703-133.654-69.823-.992-139.618 43.399-139.731 133.654-.113 94.677 85 106.073 85 194.145z" fill="#fe9737" fill-rule="evenodd"/></g><g><path clip-rule="evenodd" d="m232.268 442.449 41.99-16.838 49.069 16.838v31.011c0 17.065-13.959 31.039-31.004 31.039h-29.079c-17.045 0-30.976-13.975-30.976-31.039z" fill="#838383" fill-rule="evenodd"/></g><g><path clip-rule="evenodd" d="m216.213 383.148h123.167c5.493 0 9.967 4.479 9.967 9.978v39.317c0 5.499-4.474 10.006-9.967 10.006h-123.167c-5.493 0-9.995-4.507-9.995-10.006v-39.317c0-5.499 4.502-9.978 9.995-9.978z" fill="#f9f7f7" fill-rule="evenodd"/></g><g><path clip-rule="evenodd" d="m309.368 442.449h-77.1v19.304h55.128c13.166 0 13.959 3.742 13.959 15.506v4.62 10.885c0 3.827-.708 7.512-2.01 10.913 13.704-3.203 23.982-15.562 23.982-30.217v-10.857-20.154z" fill="#595959" fill-rule="evenodd"/></g><g><path clip-rule="evenodd" d="m240.196 70.401c58.186 6.208 111.842 44.532 119.515 115.229.623 5.641.934 11.509.934 17.547.028 8.787-.708 16.866-2.039 24.35-1.557 8.816-3.936 16.781-6.937 24.18-2.322 5.726-5.012 11.112-7.956 16.186-22.85 39.43-61.357 62.759-67.303 115.257h36.129c3.426-15.279 11.043-29.764 22.906-41.641 5.408-5.414 11.382-9.95 17.696-13.606 25.2-37.588 64.443-63.468 64.358-127.786-.085-90.255-69.908-134.646-139.703-133.654-12.684-.201-25.34 1.132-37.6 3.938z" fill="#f36b37" fill-rule="evenodd"/></g><g><path clip-rule="evenodd" d="m276.41 383.148c-.821 3.657-1.387 7.37-1.727 11.112-.963 10.942.17 22.054 3.426 32.655 1.501 4.961 3.483 9.78 5.889 14.428l.595 1.105h24.775 11.354c-.198-.368-.396-.737-.595-1.105-7.617-14.627-10.731-31.039-9.315-47.084.34-3.742.906-7.455 1.727-11.112h-36.129z" fill="#e2e2e2" fill-rule="evenodd"/></g><g><path d="m277.797 36.714c-4.143 0-7.5-3.357-7.5-7.5v-21.714c0-4.143 3.357-7.5 7.5-7.5s7.5 3.357 7.5 7.5v21.714c0 4.142-3.357 7.5-7.5 7.5z"/></g><g><path d="m197.384 56.018c-1.921 0-3.842-.733-5.307-2.2l-15.346-15.364c-2.927-2.931-2.924-7.679.007-10.606 2.93-2.927 7.679-2.924 10.606.007l15.346 15.364c2.927 2.931 2.924 7.679-.007 10.606-1.463 1.461-3.381 2.193-5.299 2.193z"/></g><g><path d="m358.182 56.018c-1.918 0-3.836-.731-5.3-2.193-2.931-2.928-2.934-7.676-.007-10.606l15.346-15.364c2.928-2.931 7.677-2.934 10.606-.007 2.931 2.928 2.934 7.676.007 10.606l-15.346 15.364c-1.464 1.466-3.385 2.2-5.306 2.2z"/></g><g><path clip-rule="evenodd" d="m335.445 462.207c33.298 33.336 87.293 33.336 120.591 0s33.298-87.364 0-120.7-87.293-33.336-120.591 0-33.298 87.364 0 120.7z" fill="#97da7b" fill-rule="evenodd"/></g><g><path clip-rule="evenodd" d="m425.258 462.207c33.298-33.336 33.298-87.364 0-120.7-12.713-12.728-28.456-20.608-44.907-23.613 26.615-4.876 55.1 3.005 75.684 23.613 33.298 33.336 33.298 87.364 0 120.7-20.585 20.608-49.069 28.488-75.684 23.613 16.451-3.005 32.194-10.885 44.907-23.613z" fill="#68ca44" fill-rule="evenodd"/></g><path d="m427.054 384.169-25.993-26.022c-.129-.129-.235-.222-.331-.301-1.324-1.177-3.064-1.899-4.976-1.899-1.94 0-3.702.742-5.033 1.951-.06.049-.123.109-.186.169-.029.028-.061.054-.09.082l-26.016 26.018c-2.929 2.929-2.929 7.678.001 10.606 1.464 1.464 3.384 2.196 5.303 2.196s3.839-.732 5.304-2.197l13.217-13.218v58.712c0 4.143 3.357 7.5 7.5 7.5s7.5-3.357 7.5-7.5v-58.698l13.187 13.201c1.465 1.466 3.386 2.199 5.307 2.199 1.918 0 3.836-.731 5.301-2.193 2.929-2.926 2.932-7.675.005-10.606z"/><g><path d="m138.505 328.111c-.023 0-.044 0-.066 0-19.048 0-34.565 15.489-34.602 34.557-.036 19.097 15.452 34.662 34.512 34.698h.134c9.182 0 17.819-3.563 24.335-10.042 6.568-6.531 10.195-15.237 10.213-24.514.036-19.097-15.452-34.663-34.526-34.699zm13.737 48.577c-3.685 3.664-8.568 5.679-13.773 5.679-.025 0-.052 0-.076 0-10.803-.021-19.575-8.844-19.555-19.669.021-10.808 8.811-19.586 19.602-19.586h.037c10.803.021 19.575 8.845 19.555 19.67-.011 5.265-2.068 10.203-5.79 13.906z"/><path d="m482.509 368.93c-1.47-3.87-5.8-5.83-9.67-4.36-3.88 1.46-5.83 5.79-4.37 9.66 10.81 28.62 3.84 61.07-17.74 82.68-14.69 14.7-34.22 22.8-54.99 22.8s-40.3-8.1-54.99-22.8c-2.22-2.22-4.28-4.55-6.16-6.96-1.34-1.69-2.59-3.43-3.76-5.2-2.02-3.05-3.79-6.22-5.32-9.47-.06-.11-.11-.22-.16-.33-6.51-13.91-8.69-29.36-6.54-44.3.74-5.09 1.97-10.12 3.71-15 1.73-4.86 3.95-9.59 6.68-14.09 3.17-5.26 7.02-10.22 11.55-14.75 5.31-5.32 11.27-9.78 17.69-13.3 11.3-6.21 24.05-9.5 37.3-9.5 20.77 0 40.3 8.09 54.99 22.8 2.93 2.93 7.68 2.93 10.61 0 2.93-2.92 2.93-7.67 0-10.6-8.76-8.77-18.97-15.57-30.08-20.18s-23.13-7.02-35.52-7.02c-7 0-13.89.77-20.56 2.27 1.48-1.8 2.97-3.61 4.47-5.42 22.33-26.96 45.41-54.84 45.35-105.75-.04-40.33-13.63-75.02-39.32-100.32-26.92-26.52-66.26-41.37-107.88-40.83-.81-.01-1.61-.02-2.41-.02-44.66 0-85.37 17.32-111.99 47.74-2.73 3.11-2.41 7.85.7 10.58 3.12 2.73 7.86 2.41 10.59-.7 24.22-27.67 61.8-43.18 103-42.6h.21c37.7-.51 73.15 12.78 97.26 36.52 22.76 22.42 34.81 53.42 34.84 89.64.06 45.5-20.32 70.12-41.9 96.17-6.91 8.34-13.9 16.78-20.19 25.97-6.39 3.86-12.36 8.53-17.77 13.95-11.36 11.38-19.15 24.99-23.38 39.44h-22.85v-139.093h15.576c4.143 0 7.5-3.357 7.5-7.5s-3.357-7.5-7.5-7.5h-47.03c-4.143 0-7.5 3.357-7.5 7.5s3.357 7.5 7.5 7.5h16.454v139.093h-39.64c-1.73-12.06-5.09-22.64-9.5-32.23-.9-1.99-1.86-3.93-2.85-5.83-8.12-15.54-18.88-28.54-29.45-41.3-1.38-1.66-2.75-3.32-4.11-4.98-11.07-13.45-21.48-26.9-28.55-43.46h-.01c-5.71-13.35-9.26-28.72-9.23-47.73.02-20.93 3.98-40.05 11.76-56.83 1.74-3.76.11-8.22-3.65-9.96s-8.22-.11-9.96 3.65c-8.7 18.76-13.13 40-13.15 63.13-.03 18.58 3.03 34.09 8.02 47.61l-14.23-.03c-10.07 0-18.26 8.19-18.26 18.23l-.01 5.39c-3.06 1.12-6.05 2.39-8.96 3.79l-3.87-3.89c-7.11-7.11-18.68-7.13-25.8-.05-.01.01-.01.01-.01.01l-20.21 20.17c-3.45 3.44-5.36 8.02-5.37 12.91-.01 4.88 1.88 9.46 5.31 12.9l4.42 4.43c-1.28 2.76-2.42 5.58-3.42 8.45l-6.35-.02c-10.07 0-18.26 8.18-18.26 18.23l-.06 28.55c-.02 4.87 1.86 9.47 5.32 12.93 3.44 3.47 8.02 5.38 12.87 5.38l6.89.01c.99 2.71 2.1 5.37 3.32 7.98l-4.9 4.9c-3.45 3.43-5.36 8.02-5.36 12.9-.01 4.88 1.88 9.47 5.3 12.9l20.17 20.3c7.11 7.08 18.68 7.09 25.79.02l4.91-4.91c2.59 1.24 5.23 2.35 7.91 3.34v6.88c-.04 10.06 8.11 18.29 18.19 18.34l28.59.05c10.02 0 18.21-8.16 18.26-18.22l.01-6.37c2.85-.99 5.65-2.12 8.4-3.37l4.43 4.45c7.1 7.11 18.68 7.13 25.81.03l4.54-4.53c.73.1 1.49.15 2.25.15h8.56v23.51c0 21.25 17.26 38.54 38.47 38.54h29.08c21.23 0 38.51-17.29 38.51-38.54v-5.28c17.44 17.12 40.45 26.53 64.91 26.53 24.78 0 48.08-9.66 65.6-27.2 25.74-25.77 34.05-64.46 21.17-98.58zm-283.79 24.2v39.31c0 3.26.89 6.32 2.46 8.94l-2.34 2.33c-1.25 1.24-3.37 1.24-4.61 0l-8.21-8.25c-2.32-2.34-5.89-2.88-8.8-1.35-5.1 2.68-10.47 4.83-15.97 6.4-3.22.91-5.45 3.85-5.45 7.19l-.03 11.83c-.01 1.78-1.5 3.28-3.25 3.28l-28.55-.05c-1.76-.01-3.24-1.51-3.24-3.3v-12.3c0-3.31-2.16-6.22-5.32-7.18-5.31-1.61-10.5-3.8-15.4-6.51-1.14-.63-2.38-.93-3.62-.93-1.94 0-3.86.75-5.3 2.19l-8.77 8.75c-1.25 1.24-3.37 1.23-4.59.01l-20.15-20.29c-.82-.81-.94-1.78-.94-2.28.01-.51.13-1.48.97-2.31l8.75-8.76c2.34-2.35 2.87-5.96 1.29-8.87-2.68-4.94-4.85-10.16-6.47-15.52-.95-3.16-3.86-5.33-7.16-5.33l-12.31-.03c-1.13 0-1.9-.6-2.25-.96-.36-.35-.96-1.13-.95-2.3l.06-28.59c0-1.78 1.46-3.24 3.24-3.24l11.83.03h.02c3.35 0 6.3-2.23 7.22-5.46 1.56-5.5 3.72-10.86 6.44-15.93 1.56-2.91 1.04-6.5-1.29-8.84l-8.22-8.25c-.82-.82-.94-1.79-.94-2.29s.13-1.47.96-2.3l20.21-20.18c1.27-1.26 3.34-1.25 4.59.01l7.76 7.79c2.38 2.39 6.05 2.9 8.99 1.25 5.12-2.87 10.63-5.21 16.37-6.96 3.16-.95 5.32-3.86 5.32-7.15l.03-10.79c0-1.79 1.46-3.25 3.25-3.25l20.89.04c8.51 16.36 19.69 29.86 30.68 43.13 17.12 20.69 33.37 40.32 38.18 69.93-8.65 1.04-15.38 8.41-15.38 17.34zm33.55 41.82h-16.06c-1.35 0-2.49-1.15-2.49-2.51v-39.31c0-1.06.7-1.98 1.65-2.33.26-.1.54-.15.84-.15h87.48c-1.79 14.88 0 30.12 5.38 44.3zm83.56 38.51c0 12.98-10.55 23.54-23.51 23.54h-29.08c-12.94 0-23.47-10.56-23.47-23.54v-23.51h76.06z"/></g></g></svg>