<?xml version="1.0"?>
<svg xmlns="http://www.w3.org/2000/svg" xmlns:xlink="http://www.w3.org/1999/xlink" xmlns:svgjs="http://svgjs.com/svgjs" version="1.1" width="512" height="512" x="0" y="0" viewBox="0 0 512 512" style="enable-background:new 0 0 512 512" xml:space="preserve" class=""><g><g xmlns="http://www.w3.org/2000/svg"><g><g><g><g><path d="m106.363 54.692h299.274v402.615h-299.274z" fill="#f9f9f9" data-original="#fff5b5" style="" class=""/><path d="m365.637 54.692h40v402.615h-40z" fill="#8effa0" data-original="#ffef8f" style="" class=""/><path d="m106.363 54.692h299.274v120.734h-299.274z" fill="#18d963" data-original="#ffd54d" style="" class=""/><path d="m365.637 54.692h40v120.734h-40z" fill="#1edb56" data-original="#ffc919" style="" class=""/></g></g><g><circle cx="131.148" cy="444.099" fill="#ffbe6b" r="60.401" data-original="#a6f5cf" style="" class=""/></g><g><path d="m401.634 301.953c-11.074-10.949-17.935-26.15-17.935-42.953 0-33.358 27.042-60.401 60.401-60.401s60.4 27.043 60.4 60.401c0 16.573-6.675 31.587-17.483 42.5z" fill="#5797af" data-original="#ff8ccc" style="" class=""/><g><path d="m444.1 319.401c16.785 0 31.967-6.851 42.913-17.905-4.343-12.96-14.387-23.305-27.158-28.049 5.186-4.614 8.337-11.465 7.926-19.042-.645-11.89-10.286-21.614-22.17-22.35-13.783-.854-25.228 10.072-25.228 23.67 0 7.05 3.079 13.378 7.962 17.722-12.572 4.67-22.501 14.767-26.95 27.443-.129.368-.033.784.245 1.059 10.909 10.787 25.904 17.452 42.46 17.452z" fill="#ffffff" data-original="#ffffff" style="" class=""/></g></g><g><circle cx="67.901" cy="67.901" fill="#fbf848" r="60.401" data-original="#7776d0" style="" class=""/><path d="m67.901 38.82 8.651 17.53 19.346 2.811-13.999 13.645 3.305 19.268-17.303-9.097-17.304 9.097 3.305-19.268-13.999-13.645 19.346-2.811z" fill="#ffffff" data-original="#ffffff" style="" class=""/></g></g></g><g><path d="m451.03 350.13c-.949-2.25-3.053-4.028-5.47-4.48-2.43-.5-5.02.3-6.76 2.05-2.83 2.751-2.969 7.652 0 10.6 2.783 2.803 7.902 2.779 10.6 0 2.213-2.558 2.756-5.281 1.63-8.17z" fill="#000000" data-original="#000000" style="" class=""/><circle cx="444.1" cy="424.66" r="7.5" fill="#000000" data-original="#000000" style="" class=""/><circle cx="444.1" cy="460.49" r="7.5" fill="#000000" data-original="#000000" style="" class=""/><circle cx="444.1" cy="388.83" r="7.5" fill="#000000" data-original="#000000" style="" class=""/><path d="m451.03 493.45c-.965-2.285-3.043-3.984-5.47-4.49-4.275-.862-8.099 2.089-8.81 5.89-.92 4.413 2.502 8.97 7.35 8.97 5.077 0 8.935-5.408 6.93-10.37z" fill="#000000" data-original="#000000" style="" class=""/><circle cx="328.55" cy="496.32" r="7.5" fill="#000000" data-original="#000000" style="" class=""/><circle cx="290.03" cy="496.32" r="7.5" fill="#000000" data-original="#000000" style="" class=""/><circle cx="367.07" cy="496.32" r="7.5" fill="#000000" data-original="#000000" style="" class=""/><circle cx="405.58" cy="496.32" r="7.5" fill="#000000" data-original="#000000" style="" class=""/><circle cx="251.52" cy="496.32" r="7.5" fill="#000000" data-original="#000000" style="" class=""/><path d="m219.93 493.45c-1.835-4.47-8.705-5.964-12.23-2.44-2.503 2.503-2.88 6.523-.94 9.47 2.533 3.703 8.051 4.654 11.54 1.14 2.124-2.124 2.741-5.392 1.63-8.17z" fill="#000000" data-original="#000000" style="" class=""/><path d="m139.07 18.55c1.58 3.746 6.015 5.658 9.8 4.06 3.793-1.6 5.585-5.979 4.06-9.79-1.342-3.25-4.916-5.172-8.4-4.49-4.556.966-7.191 5.9-5.46 10.22z" fill="#000000" data-original="#000000" style="" class=""/><path d="m188.59 23.18c4.14 0 7.49-3.35 7.49-7.5 0-4.14-3.35-7.5-7.49-7.5-4.15 0-7.51 3.36-7.51 7.5 0 4.15 3.36 7.5 7.51 7.5z" fill="#000000" data-original="#000000" style="" class=""/><circle cx="358.93" cy="15.68" r="7.5" fill="#000000" data-original="#000000" style="" class=""/><circle cx="401.51" cy="15.68" r="7.5" fill="#000000" data-original="#000000" style="" class=""/><circle cx="316.34" cy="15.68" r="7.5" fill="#000000" data-original="#000000" style="" class=""/><circle cx="273.76" cy="15.68" r="7.5" fill="#000000" data-original="#000000" style="" class=""/><circle cx="231.17" cy="15.68" r="7.5" fill="#000000" data-original="#000000" style="" class=""/><path d="m437.17 18.55c.379.923.922 1.737 1.63 2.44 2.825 2.825 7.864 2.74 10.6 0 2.839-2.839 2.743-7.867 0-10.61-2.695-2.776-7.557-3.043-10.6 0-2.124 2.124-2.743 5.393-1.63 8.17z" fill="#000000" data-original="#000000" style="" class=""/><circle cx="444.1" cy="53.51" r="7.5" fill="#000000" data-original="#000000" style="" class=""/><circle cx="444.1" cy="91.34" r="7.5" fill="#000000" data-original="#000000" style="" class=""/><circle cx="444.1" cy="129.17" r="7.5" fill="#000000" data-original="#000000" style="" class=""/><path d="m437.17 169.87c.382.918.926 1.728 1.63 2.43 1.39 1.4 3.32 2.2 5.3 2.2 4.083 0 7.5-3.418 7.5-7.5 0-3.66-2.669-6.719-6.04-7.35-2.43-.5-5.02.3-6.76 2.05-2.148 2.088-2.729 5.423-1.63 8.17z" fill="#000000" data-original="#000000" style="" class=""/><path d="m65.03 384.93c2.746 1.099 6.081.522 8.17-1.63 2.934-3.533 2.934-7.067 0-10.6-3.268-3.362-8.953-2.645-11.54 1.14-2.408 3.566-.497 9.456 3.37 11.09z" fill="#000000" data-original="#000000" style="" class=""/><circle cx="67.9" cy="247.2" r="7.5" fill="#000000" data-original="#000000" style="" class=""/><circle cx="67.9" cy="290.8" r="7.5" fill="#000000" data-original="#000000" style="" class=""/><circle cx="67.9" cy="203.6" r="7.5" fill="#000000" data-original="#000000" style="" class=""/><circle cx="67.9" cy="334.4" r="7.5" fill="#000000" data-original="#000000" style="" class=""/><path d="m61.66 164.16c.56.827 1.253 1.52 2.08 2.08 4.709 3.18 11.66-.066 11.66-6.24 0-1.97-.8-3.91-2.2-5.3-2.777-2.857-7.822-2.854-10.6 0-2.601 2.583-2.856 6.622-.94 9.46z" fill="#000000" data-original="#000000" style="" class=""/><path d="m348.152 90.04c-2.732-7.234-13.209-7.264-15.957-.02l-17.316 45.379c-1.477 3.87.463 8.204 4.333 9.681 3.871 1.475 8.204-.464 9.681-4.333l2.471-6.476h17.475l2.44 6.454c1.375 3.636 6.068 5.726 9.667 4.363 3.875-1.465 5.828-5.793 4.363-9.667zm-11.063 29.231 3.054-8.003 3.026 8.003z" fill="#000000" data-original="#000000" style="" class=""/><path d="m264.447 130.534h-.029c-4.629.018-10.97.036-15.827.039v-38.527c0-4.142-3.358-7.5-7.5-7.5s-7.5 3.358-7.5 7.5v45.988c0 3.653 2.632 6.775 6.232 7.392.548.094.879.151 8.165.151 3.559 0 8.776-.014 16.487-.043 4.142-.016 7.487-3.387 7.471-7.529-.015-4.132-3.37-7.471-7.499-7.471z" fill="#000000" data-original="#000000" style="" class=""/><path d="m176.37 108.384c-5.354-1.971-10.358-4.111-12.206-4.914-.862-1.61-.165-2.783 2.09-3.519 5.564-1.672 10.892 2.447 11.104 2.615 3.173 2.614 7.866 2.188 10.515-.968 2.663-3.173 2.248-7.904-.925-10.566-4.226-3.545-14.25-8.68-25.013-5.445-7.024 2.112-11.997 7.668-12.976 14.5-.925 6.45 1.877 12.654 7.314 16.192 3.95 2.569 11.338 4.865 14.916 6.182 2.469.909 5.243 2.584 4.934 4.315-.273 1.531-2.479 3.797-6.348 3.797-4.104 0-8.036-1.632-10.518-4.365-2.784-3.066-7.527-3.295-10.594-.51-3.066 2.785-3.295 7.528-.51 10.594 5.356 5.898 13.237 9.281 21.623 9.281 10.565 0 19.445-6.799 21.115-16.166 1.266-7.112-1.883-16.37-14.521-21.023z" fill="#000000" data-original="#000000" style="" class=""/><path d="m212.371 130.573c-9.652 0-9.668 15 0 15 9.652 0 9.668-15 0-15z" fill="#000000" data-original="#000000" style="" class=""/><path d="m293.167 130.573c-9.652 0-9.668 15 0 15 9.651 0 9.667-15 0-15z" fill="#000000" data-original="#000000" style="" class=""/><path d="m201.639 269.631c-3.075-2.777-7.817-2.535-10.593.539l-20.109 22.264-5.558-6.154c-2.777-3.075-7.519-3.315-10.593-.539s-3.315 7.519-.539 10.593l11.124 12.316c1.422 1.575 3.444 2.473 5.566 2.473s4.144-.898 5.566-2.473l25.675-28.426c2.776-3.074 2.534-7.816-.539-10.593z" fill="#000000" data-original="#000000" style="" class=""/><path d="m352.188 281.91h-113.569c-4.142 0-7.5 3.358-7.5 7.5s3.358 7.5 7.5 7.5h113.569c4.142 0 7.5-3.358 7.5-7.5s-3.358-7.5-7.5-7.5z" fill="#000000" data-original="#000000" style="" class=""/><path d="m201.639 213.7c-3.075-2.777-7.816-2.535-10.593.539l-20.109 22.263-5.558-6.154c-2.777-3.073-7.52-3.314-10.593-.539-3.074 2.776-3.315 7.519-.539 10.593l11.124 12.316c1.422 1.574 3.444 2.473 5.566 2.473s4.144-.898 5.566-2.473l25.675-28.425c2.776-3.074 2.534-7.816-.539-10.593z" fill="#000000" data-original="#000000" style="" class=""/><path d="m352.188 225.979h-113.569c-4.142 0-7.5 3.358-7.5 7.5s3.358 7.5 7.5 7.5h113.569c4.142 0 7.5-3.358 7.5-7.5s-3.358-7.5-7.5-7.5z" fill="#000000" data-original="#000000" style="" class=""/><path d="m201.639 325.562c-3.075-2.777-7.817-2.535-10.593.539l-20.109 22.264-5.558-6.154c-2.777-3.074-7.519-3.314-10.593-.539-3.074 2.776-3.315 7.519-.539 10.593l11.124 12.316c1.422 1.575 3.444 2.473 5.566 2.473s4.144-.898 5.566-2.473l25.675-28.426c2.776-3.073 2.534-7.816-.539-10.593z" fill="#000000" data-original="#000000" style="" class=""/><path d="m359.688 345.341c0-4.142-3.358-7.5-7.5-7.5h-113.569c-4.142 0-7.5 3.358-7.5 7.5s3.358 7.5 7.5 7.5h113.569c4.142 0 7.5-3.358 7.5-7.5z" fill="#000000" data-original="#000000" style="" class=""/><path d="m312.532 386.108c-3.057-4.983-9.271-6.766-14.601-4.722-5.768 2.212-9.465 8.727-12.996 13.458-5.066 6.788-9.871 13.823-14.227 21.091-4.974 8.301 7.99 15.852 12.952 7.571 3.779-6.305 7.914-12.42 12.226-18.37 1.163-1.604 2.343-3.194 3.552-4.763.138 4.511 1.082 9.438 3.063 12.837 2.744 4.707 7.839 7.324 13.211 6.855 5.448-1.512 10.423-3.98 14.924-7.404 1.671.066 5.906 3.943 6.079 4.045 4.812 2.841 9.909 2.99 15.261 1.893 9.45-1.937 5.451-16.398-3.988-14.464-3.914.802-5.367-1.962-8.459-3.86-4.586-2.814-9.687-3.369-14.707-1.336-3.463 1.581-6.686 3.525-9.67 5.833-1.197-6.15.846-13.014-2.62-18.664z" fill="#000000" data-original="#000000" style="" class=""/><path d="m126.313 449.833 19.348 16.313c3.646 2.624 7.169 2.324 10.568-.899 2.67-3.167 2.268-7.898-.899-10.568l-16.682-14.065v-28.837c0-4.142-3.358-7.5-7.5-7.5s-7.5 3.358-7.5 7.5v32.323c-.001 2.211.975 4.308 2.665 5.733z" fill="#000000" data-original="#000000" style="" class=""/><path d="m444.1 191.1c-11.146 0-21.673 2.7-30.962 7.479v-143.887c0-4.142-3.358-7.5-7.5-7.5h-273.066c-8.776-27.345-34.449-47.192-64.672-47.192-7.87 0-15.598 1.344-22.968 3.994-3.897 1.401-5.921 5.697-4.52 9.595 1.401 3.897 5.697 5.921 9.595 4.52 5.738-2.063 11.758-3.109 17.893-3.109 29.169 0 52.9 23.731 52.9 52.9s-23.731 52.9-52.9 52.9-52.9-23.73-52.9-52.9c0-10.21 2.927-20.13 8.466-28.688 2.25-3.477 1.256-8.121-2.222-10.371-3.475-2.25-8.12-1.256-10.371 2.222-7.113 10.991-10.873 23.729-10.873 36.837 0 37.44 30.46 67.9 67.9 67.9 11.146 0 21.673-2.7 30.962-7.479v256.056c-21.194 11.503-35.616 33.96-35.616 59.722 0 37.44 30.46 67.9 67.9 67.9 30.229 0 55.907-19.856 64.678-47.21 70.068-.29 141.271-.29 210.174-.29 4.142 0 7.5-3.358 7.5-7.5 0-15.285.365-31.09 0-46.211-.233-9.696-15.235-9.332-15.001.362.302 12.493-.008 25.528 0 38.349-65.576 0-133.113.01-199.685.277.156-1.872.235-3.766.235-5.678 0-37.44-30.46-67.9-67.901-67.9-5.971 0-11.764.775-17.285 2.229v-195.5h284.274v26.137c-13.48 12.417-21.938 30.208-21.938 49.937 0 18.897 8.098 37.213 21.992 49.986l.307 58.58c-.165 9.48 14.654 10.094 14.826.263.286-16.306 0-48.312 0-48.312 9.243 4.719 19.704 7.383 30.775 7.383 18.596 0 35.471-7.515 47.746-19.667.343-.29.657-.608.94-.95 11.889-12.235 19.217-28.92 19.217-47.284 0-37.44-30.46-67.9-67.9-67.9zm-312.953 200.099c29.169 0 52.901 23.731 52.901 52.9s-23.731 52.901-52.901 52.901-52.9-23.731-52.9-52.9 23.731-52.901 52.9-52.901zm-17.284-223.272v-50.09c13.48-12.417 21.938-30.208 21.938-49.937 0-1.922-.08-3.826-.238-5.708h262.574v105.734h-284.274zm330.237 143.973c-12.942 0-24.813-4.672-34.016-12.417 4.214-8.764 11.64-15.577 20.873-19.006 2.467-.917 4.273-3.06 4.759-5.646s-.42-5.239-2.386-6.988c-3.462-3.079-5.447-7.496-5.447-12.118 0-4.522 1.816-8.72 5.113-11.819 3.294-3.096 7.602-4.647 12.151-4.365 8.055.499 14.708 7.207 15.146 15.27.27 4.977-1.707 9.727-5.422 13.032-1.966 1.749-2.872 4.401-2.386 6.988.486 2.586 2.292 4.729 4.759 5.646 9.109 3.384 16.647 10.323 20.866 19.013-9.204 7.741-21.072 12.41-34.01 12.41zm44.523-24.358c-4.339-6.841-10.194-12.577-17.154-16.784 2.778-5.045 4.123-10.819 3.801-16.759-.857-15.799-13.408-28.451-29.195-29.43-8.718-.541-17.01 2.446-23.352 8.407-6.253 5.878-9.84 14.169-9.84 22.749 0 5.305 1.357 10.469 3.863 15.028-6.955 4.207-12.819 9.951-17.164 16.795-5.303-8.24-8.381-18.041-8.381-28.548 0-29.169 23.731-52.9 52.9-52.9s52.899 23.731 52.899 52.9c0 10.504-3.077 20.302-8.377 28.542z" fill="#000000" data-original="#000000" style="" class=""/><path d="m34.668 64.532 11.175 10.893-2.638 15.381c.351 7.145 3.978 9.781 10.882 7.907l13.813-7.263 13.813 7.262c4.895 2.572 11.978-1.517 10.882-7.907l-2.638-15.381 11.175-10.893c3.916-5.987 2.53-10.251-4.157-12.792l-15.443-2.244-6.907-13.994c-4.484-5.574-8.967-5.574-13.451 0l-6.906 13.994-15.444 2.244c-6.686 2.542-8.072 6.806-4.156 12.793zm25.66-.76c3.557-.517 6.464-4.748 7.573-8.005 2.104 5.094 6.395 8.244 11.88 8.631-4.194 3.575-5.865 8.63-4.538 13.966-4.76-3.335-9.9-3.352-14.685 0 1.292-5.358-.328-10.429-4.538-13.966z" fill="#000000" data-original="#000000" style="" class=""/></g></g></g></svg>
