<?xml version="1.0"?>
<svg xmlns="http://www.w3.org/2000/svg" xmlns:xlink="http://www.w3.org/1999/xlink" xmlns:svgjs="http://svgjs.com/svgjs" version="1.1" width="512" height="512" x="0" y="0" viewBox="0 0 64 64" style="enable-background:new 0 0 512 512" xml:space="preserve"><g><linearGradient xmlns="http://www.w3.org/2000/svg" id="New_Gradient_Swatch_3" gradientUnits="userSpaceOnUse" x1="32.035" x2="32.035" y1="51.07" y2="14.749"><stop stop-opacity="1" stop-color="#00c0d0" offset="0"/><stop stop-opacity="1" stop-color="#11bd56" offset="1"/></linearGradient><linearGradient xmlns="http://www.w3.org/2000/svg" xmlns:xlink="http://www.w3.org/1999/xlink" id="New_Gradient_Swatch_3-2" x1="31" x2="31" xlink:href="#New_Gradient_Swatch_3" y1="51.07" y2="14.749"/><g xmlns="http://www.w3.org/2000/svg" id="View"><path d="m31 48c-8.97 0-22.139-8.962-27.849-13.7a2.985 2.985 0 0 1 0-4.6c5.71-4.739 18.879-13.7 27.849-13.7 8.669 0 21.263 8.368 27.146 13.124a3 3 0 1 1 0 5.752c-5.883 4.756-18.476 13.124-27.146 13.124zm0-30c-8.711 0-22.134 9.557-26.571 13.239a.986.986 0 0 0 0 1.523c4.437 3.681 17.861 13.238 26.571 13.238 8.65 0 21.949-9.421 26.344-13.051a1 1 0 0 1 1.151-.086.981.981 0 0 0 .505.137 1 1 0 0 0 0-2 .976.976 0 0 0 -.506.138 1 1 0 0 1 -1.15-.087c-4.395-3.63-17.695-13.051-26.344-13.051z" fill="url(#New_Gradient_Swatch_3)" data-original="url(#New_Gradient_Swatch_3)" style=""/><g fill="url(#New_Gradient_Swatch_3-2)"><path d="m31 45a13 13 0 1 1 13-13 13.015 13.015 0 0 1 -13 13zm0-24a11 11 0 1 0 11 11 11.013 11.013 0 0 0 -11-11z" fill=""/><path d="m31 39a7 7 0 1 1 7-7 7.008 7.008 0 0 1 -7 7zm0-12a5 5 0 1 0 5 5 5.006 5.006 0 0 0 -5-5z" fill=""/></g></g></g></svg>
