<svg id="svg" version="1.1" xmlns="http://www.w3.org/2000/svg" xmlns:xlink="http://www.w3.org/1999/xlink" width="400" height="400" viewBox="0, 0, 400,400"><g id="svgg"><path id="path0" d="M181.380 0.338 C 181.171 0.523,178.840 0.889,176.200 1.151 C 170.920 1.674,168.973 1.975,164.200 3.006 C 162.440 3.387,160.190 3.835,159.200 4.004 C 155.281 4.670,152.562 5.247,151.800 5.572 C 151.360 5.760,149.650 6.210,148.000 6.572 C 146.350 6.934,144.550 7.384,144.000 7.574 C 143.450 7.763,141.920 8.227,140.600 8.605 C 137.479 9.499,132.418 11.126,131.400 11.563 C 130.960 11.752,129.340 12.395,127.800 12.992 C 124.621 14.225,124.302 14.357,121.000 15.812 C 117.430 17.385,116.158 17.934,114.500 18.622 C 111.613 19.819,102.361 24.723,99.324 26.666 C 98.177 27.400,97.151 28.000,97.043 28.000 C 96.267 28.000,77.972 40.525,75.746 42.581 C 75.496 42.811,73.966 44.078,72.346 45.396 C 68.525 48.504,48.504 68.525,45.396 72.346 C 44.078 73.966,42.811 75.496,42.581 75.746 C 40.525 77.972,28.000 96.267,28.000 97.043 C 28.000 97.151,27.400 98.177,26.666 99.324 C 24.723 102.361,19.819 111.613,18.622 114.500 C 17.934 116.158,17.385 117.430,15.812 121.000 C 14.357 124.302,14.225 124.621,12.992 127.800 C 12.395 129.340,11.752 130.960,11.563 131.400 C 11.126 132.418,9.499 137.479,8.605 140.600 C 8.227 141.920,7.763 143.450,7.574 144.000 C 7.384 144.550,6.934 146.350,6.572 148.000 C 6.210 149.650,5.760 151.360,5.572 151.800 C 5.247 152.562,4.670 155.281,4.004 159.200 C 3.835 160.190,3.387 162.440,3.006 164.200 C 1.918 169.235,1.647 171.038,1.128 176.700 C 0.860 179.615,0.497 182.000,0.321 182.000 C 0.144 182.000,0.000 190.100,0.000 200.000 C 0.000 209.900,0.144 218.000,0.319 218.000 C 0.608 218.000,1.074 221.460,2.016 230.600 C 2.198 232.360,2.641 235.150,3.002 236.800 C 3.362 238.450,3.746 240.340,3.855 241.000 C 4.194 243.053,5.219 247.361,5.569 248.200 C 5.752 248.640,6.117 249.990,6.380 251.200 C 6.864 253.428,7.811 256.973,8.410 258.800 C 8.590 259.350,9.221 261.420,9.812 263.400 C 10.402 265.380,11.115 267.540,11.396 268.200 C 11.677 268.860,12.134 270.030,12.413 270.800 C 13.132 272.784,15.097 277.491,17.174 282.200 C 17.563 283.080,18.217 284.610,18.629 285.600 C 19.933 288.734,24.480 297.291,26.657 300.708 C 27.396 301.867,28.000 302.907,28.000 303.019 C 28.000 303.430,32.725 310.705,35.325 314.297 C 36.796 316.330,38.000 318.160,38.000 318.363 C 38.000 318.567,38.146 318.793,38.325 318.867 C 38.504 318.940,39.434 320.080,40.393 321.400 C 41.352 322.720,43.050 324.876,44.168 326.191 C 45.286 327.506,46.557 329.036,46.993 329.591 C 49.248 332.459,67.651 350.629,71.860 354.143 C 85.457 365.494,103.244 376.750,115.909 382.019 C 117.609 382.726,119.990 383.741,121.200 384.275 C 123.447 385.266,123.812 385.423,126.600 386.586 C 127.480 386.954,128.560 387.407,129.000 387.595 C 132.819 389.222,142.958 392.324,150.000 394.019 C 150.770 394.205,152.570 394.641,154.000 394.990 C 155.430 395.338,157.680 395.790,159.000 395.993 C 160.320 396.196,162.660 396.661,164.200 397.027 C 168.000 397.929,170.546 398.308,176.200 398.814 C 178.840 399.050,181.313 399.413,181.695 399.622 C 182.621 400.126,217.382 400.125,218.305 399.620 C 218.687 399.412,220.980 399.034,223.400 398.782 C 232.931 397.787,234.297 397.609,237.000 397.009 C 238.540 396.668,240.430 396.287,241.200 396.163 C 242.781 395.909,247.092 394.970,249.200 394.421 C 251.716 393.765,255.379 392.743,256.400 392.412 C 256.950 392.234,259.020 391.594,261.000 390.990 C 265.018 389.764,269.481 388.225,271.600 387.334 C 272.370 387.011,273.360 386.597,273.800 386.416 C 284.038 382.191,291.087 378.919,296.200 376.015 C 302.700 372.325,311.180 367.134,312.850 365.824 C 314.373 364.629,315.887 363.537,317.600 362.400 C 330.226 354.017,354.017 330.226,362.400 317.600 C 363.537 315.887,364.629 314.373,365.824 312.850 C 367.134 311.180,372.325 302.700,376.015 296.200 C 378.046 292.623,380.741 287.194,382.170 283.800 C 383.004 281.820,384.207 279.062,384.843 277.672 C 385.479 276.282,386.000 274.974,386.000 274.767 C 386.000 274.559,386.171 274.077,386.381 273.695 C 387.362 271.904,389.247 266.712,390.990 261.000 C 391.594 259.020,392.234 256.950,392.412 256.400 C 392.743 255.379,393.765 251.716,394.421 249.200 C 394.970 247.092,395.909 242.781,396.163 241.200 C 396.287 240.430,396.668 238.540,397.009 237.000 C 397.609 234.297,397.787 232.931,398.782 223.400 C 399.034 220.980,399.412 218.687,399.620 218.305 C 400.125 217.382,400.126 182.621,399.622 181.695 C 399.413 181.313,399.050 178.840,398.814 176.200 C 398.308 170.546,397.929 168.000,397.027 164.200 C 396.661 162.660,396.196 160.320,395.993 159.000 C 395.790 157.680,395.338 155.430,394.990 154.000 C 394.641 152.570,394.205 150.770,394.019 150.000 C 392.203 142.454,389.303 133.084,387.334 128.400 C 387.011 127.630,386.578 126.595,386.373 126.100 C 385.547 124.106,385.204 123.307,384.275 121.200 C 383.741 119.990,382.726 117.609,382.019 115.909 C 376.750 103.244,365.494 85.457,354.143 71.860 C 350.629 67.651,332.459 49.248,329.591 46.993 C 329.036 46.557,327.506 45.286,326.191 44.168 C 324.876 43.050,322.720 41.352,321.400 40.393 C 320.080 39.434,318.940 38.504,318.867 38.325 C 318.793 38.146,318.567 38.000,318.363 38.000 C 318.160 38.000,316.330 36.796,314.297 35.325 C 310.705 32.725,303.430 28.000,303.019 28.000 C 302.907 28.000,301.867 27.396,300.708 26.657 C 297.291 24.480,288.734 19.933,285.600 18.629 C 284.610 18.217,283.080 17.563,282.200 17.174 C 277.491 15.097,272.784 13.132,270.800 12.413 C 270.030 12.134,268.860 11.684,268.200 11.413 C 266.368 10.660,264.830 10.147,262.200 9.409 C 260.880 9.039,259.350 8.589,258.800 8.409 C 256.958 7.807,253.421 6.862,251.200 6.380 C 249.990 6.117,248.640 5.752,248.200 5.569 C 247.361 5.219,243.053 4.194,241.000 3.855 C 240.340 3.746,238.450 3.362,236.800 3.002 C 235.150 2.641,232.360 2.198,230.600 2.016 C 221.460 1.074,218.000 0.608,218.000 0.319 C 218.000 -0.110,181.863 -0.092,181.380 0.338 M209.953 8.420 C 211.357 8.648,215.047 9.007,218.153 9.219 C 224.922 9.679,228.210 10.071,233.000 10.988 C 234.980 11.366,237.500 11.830,238.600 12.018 C 242.333 12.654,245.535 13.399,245.835 13.700 C 245.999 13.865,246.635 14.000,247.248 14.000 C 247.861 14.000,248.776 14.168,249.281 14.373 C 249.787 14.578,251.280 15.042,252.600 15.403 C 259.040 17.168,265.206 19.162,265.780 19.666 C 265.989 19.850,266.486 20.000,266.885 20.000 C 267.284 20.000,267.923 20.168,268.305 20.374 C 269.923 21.246,271.761 22.000,272.267 22.000 C 272.566 22.000,273.123 22.171,273.505 22.381 C 273.887 22.590,274.920 23.065,275.800 23.437 C 280.928 25.604,291.704 30.850,294.610 32.594 C 295.715 33.257,296.975 34.010,297.410 34.267 C 305.138 38.835,316.232 46.379,320.592 50.031 C 322.294 51.457,327.557 55.966,329.400 57.578 C 334.167 61.748,344.516 72.525,348.435 77.400 C 349.849 79.160,351.305 80.960,351.670 81.400 C 354.185 84.434,356.682 87.756,357.800 89.556 C 358.020 89.910,359.055 91.412,360.100 92.894 C 361.145 94.376,362.000 95.683,362.000 95.798 C 362.000 95.914,362.701 97.042,363.558 98.305 C 364.415 99.567,365.466 101.230,365.893 102.000 C 366.320 102.770,367.274 104.480,368.013 105.800 C 368.752 107.120,369.787 109.054,370.313 110.098 C 370.839 111.142,371.434 112.097,371.635 112.221 C 371.836 112.346,372.000 112.782,372.000 113.190 C 372.000 113.599,372.135 113.993,372.300 114.067 C 372.583 114.192,374.276 117.556,375.387 120.200 C 375.664 120.860,376.344 122.390,376.898 123.600 C 377.451 124.810,378.133 126.430,378.412 127.200 C 378.911 128.575,379.453 129.917,380.554 132.500 C 380.859 133.215,381.334 134.520,381.609 135.400 C 381.885 136.280,382.247 137.360,382.413 137.800 C 383.226 139.951,385.602 147.720,386.389 150.800 C 386.642 151.790,387.098 153.500,387.403 154.600 C 387.709 155.700,388.052 157.230,388.167 158.000 C 388.281 158.770,388.663 160.570,389.015 162.000 C 389.367 163.430,389.806 165.680,389.991 167.000 C 390.175 168.320,390.622 171.380,390.984 173.800 C 392.927 186.798,393.260 215.334,391.560 223.200 C 391.346 224.190,390.989 226.350,390.766 228.000 C 390.544 229.650,390.204 232.170,390.010 233.600 C 389.817 235.030,389.370 237.370,389.018 238.800 C 388.665 240.230,388.207 242.210,388.000 243.200 C 387.111 247.453,386.568 249.565,386.294 249.840 C 386.132 250.001,386.000 250.697,386.000 251.387 C 386.000 252.076,385.843 252.811,385.651 253.020 C 385.460 253.229,384.995 254.480,384.618 255.800 C 384.242 257.120,383.679 258.791,383.367 259.514 C 383.055 260.236,382.800 261.170,382.800 261.590 C 382.800 262.010,382.620 262.464,382.400 262.600 C 382.180 262.736,382.000 263.148,382.000 263.515 C 382.000 264.317,380.313 268.947,378.909 272.000 C 378.352 273.210,377.752 274.560,377.575 275.000 C 376.857 276.790,376.024 278.720,375.039 280.875 C 374.468 282.127,374.000 283.255,374.000 283.383 C 374.000 283.511,373.550 284.329,373.000 285.200 C 372.450 286.071,372.000 287.058,372.000 287.392 C 372.000 287.726,371.854 288.000,371.675 288.000 C 371.496 288.000,370.951 288.855,370.463 289.900 C 369.975 290.945,368.867 293.060,368.000 294.600 C 367.133 296.140,366.026 298.166,365.540 299.101 C 365.054 300.037,364.369 301.117,364.018 301.501 C 363.667 301.886,362.592 303.460,361.629 305.000 C 360.666 306.540,359.763 307.890,359.621 308.000 C 359.480 308.110,358.580 309.460,357.621 311.000 C 356.663 312.540,355.766 313.890,355.629 314.000 C 355.492 314.110,354.756 315.010,353.993 316.000 C 353.231 316.990,352.271 318.160,351.859 318.600 C 351.448 319.040,350.367 320.390,349.458 321.600 C 348.549 322.810,347.711 323.890,347.597 324.000 C 347.482 324.110,346.581 325.185,345.595 326.389 C 343.099 329.433,330.270 342.302,327.600 344.439 C 326.390 345.407,324.770 346.808,324.000 347.551 C 323.230 348.294,321.610 349.631,320.400 350.523 C 319.190 351.414,318.110 352.266,318.000 352.416 C 317.890 352.565,315.730 354.149,313.200 355.937 C 310.670 357.724,308.383 359.369,308.117 359.593 C 307.851 359.817,307.548 360.000,307.443 360.000 C 307.338 360.000,305.666 361.055,303.726 362.345 C 301.787 363.634,299.120 365.281,297.800 366.005 C 296.480 366.728,295.310 367.437,295.200 367.581 C 295.090 367.724,294.370 368.152,293.600 368.532 C 292.830 368.912,291.930 369.369,291.600 369.549 C 291.270 369.729,290.640 370.052,290.200 370.267 C 289.760 370.483,288.770 370.986,288.000 371.387 C 287.230 371.787,286.330 372.237,286.000 372.387 C 285.670 372.536,284.860 372.937,284.200 373.277 C 281.228 374.809,279.241 375.723,276.427 376.853 C 274.762 377.522,273.040 378.221,272.600 378.408 C 270.338 379.364,268.866 379.955,267.600 380.413 C 266.830 380.692,265.660 381.142,265.000 381.414 C 264.340 381.685,262.720 382.223,261.400 382.609 C 260.080 382.994,258.820 383.443,258.600 383.605 C 258.380 383.767,257.660 383.992,257.000 384.105 C 256.340 384.218,254.810 384.610,253.600 384.976 C 252.390 385.342,250.770 385.798,250.000 385.991 C 249.230 386.183,247.520 386.638,246.200 387.002 C 244.880 387.365,242.900 387.815,241.800 388.001 C 240.700 388.187,238.540 388.636,237.000 389.000 C 234.152 389.673,231.843 390.021,225.387 390.750 C 223.399 390.974,220.879 391.374,219.787 391.637 C 217.003 392.309,183.684 392.322,181.313 391.653 C 180.385 391.391,177.955 390.989,175.913 390.761 C 170.690 390.177,167.858 389.742,164.400 388.992 C 162.750 388.634,160.500 388.188,159.400 388.001 C 158.300 387.814,156.410 387.358,155.200 386.989 C 153.990 386.619,152.280 386.165,151.400 385.980 C 148.933 385.462,146.070 384.603,145.753 384.286 C 145.595 384.129,144.993 384.000,144.413 384.000 C 143.834 384.000,143.189 383.843,142.980 383.651 C 142.771 383.460,141.520 382.989,140.200 382.605 C 138.880 382.221,137.233 381.658,136.540 381.354 C 135.846 381.049,135.079 380.800,134.834 380.800 C 134.589 380.800,134.077 380.635,133.695 380.434 C 133.313 380.232,132.280 379.773,131.400 379.414 C 130.520 379.055,129.487 378.590,129.105 378.381 C 128.723 378.171,128.186 378.000,127.911 378.000 C 127.636 378.000,126.419 377.527,125.206 376.949 C 123.993 376.372,122.010 375.447,120.800 374.896 C 117.043 373.182,108.392 368.792,108.000 368.400 C 107.890 368.290,106.810 367.674,105.600 367.031 C 104.390 366.388,101.600 364.717,99.400 363.318 C 97.200 361.919,95.050 360.555,94.621 360.287 C 92.705 359.088,82.244 351.470,80.600 350.076 C 80.160 349.703,78.813 348.588,77.608 347.599 C 71.852 342.876,64.869 336.213,59.600 330.415 C 57.730 328.357,56.013 326.477,55.784 326.237 C 55.556 325.997,54.126 324.270,52.607 322.400 C 51.088 320.530,49.724 318.910,49.576 318.800 C 49.427 318.690,47.389 315.900,45.047 312.600 C 42.705 309.300,40.611 306.383,40.394 306.117 C 40.177 305.851,40.000 305.561,40.000 305.472 C 40.000 305.384,39.100 303.946,38.000 302.277 C 36.900 300.609,36.000 299.152,36.000 299.040 C 36.000 298.927,35.556 298.181,35.012 297.380 C 34.469 296.580,33.714 295.222,33.335 294.362 C 32.956 293.503,32.501 292.800,32.323 292.800 C 32.145 292.800,32.000 292.451,32.000 292.024 C 32.000 291.597,31.837 291.146,31.637 291.023 C 31.166 290.732,25.050 278.272,23.575 274.600 C 23.399 274.160,22.989 273.170,22.665 272.400 C 22.341 271.630,21.759 270.100,21.372 269.000 C 20.985 267.900,20.518 266.829,20.334 266.620 C 20.150 266.411,20.000 265.837,20.000 265.344 C 20.000 264.851,19.820 264.336,19.600 264.200 C 19.380 264.064,19.199 263.648,19.198 263.276 C 19.196 262.904,18.926 262.084,18.598 261.454 C 18.269 260.824,18.000 259.915,18.000 259.434 C 18.000 258.953,17.857 258.389,17.682 258.180 C 17.370 257.806,16.463 254.948,15.657 251.800 C 15.432 250.920,14.967 249.266,14.624 248.125 C 14.281 246.984,14.000 245.676,14.000 245.219 C 14.000 244.763,13.833 244.077,13.629 243.695 C 13.133 242.767,11.935 236.753,11.179 231.400 C 10.962 229.860,10.673 228.330,10.536 228.000 C 8.934 224.133,8.100 189.320,9.419 181.400 C 9.529 180.740,9.785 178.760,9.987 177.000 C 10.319 174.110,11.008 169.731,12.000 164.200 C 12.479 161.532,13.394 157.545,13.699 156.800 C 13.835 156.470,14.034 155.570,14.141 154.800 C 14.249 154.030,14.639 152.410,15.008 151.200 C 15.377 149.990,15.765 148.550,15.870 148.000 C 15.974 147.450,16.213 146.640,16.400 146.200 C 16.586 145.760,17.043 144.320,17.415 143.000 C 18.185 140.266,19.807 135.607,20.639 133.740 C 20.947 133.046,21.200 132.202,21.200 131.863 C 21.200 131.524,21.380 131.136,21.600 131.000 C 21.820 130.864,22.000 130.493,22.000 130.174 C 22.000 129.856,22.450 128.663,23.000 127.523 C 23.550 126.383,24.000 125.294,24.000 125.104 C 24.000 124.791,25.878 120.776,29.382 113.600 C 30.652 110.998,32.689 107.255,34.062 105.000 C 34.464 104.340,34.921 103.531,35.077 103.202 C 35.996 101.266,42.759 90.902,43.903 89.676 C 44.179 89.380,44.613 88.749,44.868 88.273 C 45.317 87.434,49.101 82.401,49.584 82.000 C 49.717 81.890,50.360 81.061,51.013 80.159 C 54.722 75.031,67.028 62.054,72.996 56.978 C 74.533 55.670,76.513 53.947,77.396 53.150 C 79.701 51.066,82.848 48.585,87.200 45.419 C 89.290 43.899,91.060 42.508,91.133 42.327 C 91.207 42.147,91.460 42.000,91.696 42.000 C 91.931 42.000,92.714 41.550,93.436 41.000 C 94.157 40.450,94.840 40.000,94.954 40.000 C 95.068 40.000,96.295 39.219,97.681 38.265 C 100.486 36.334,104.369 33.970,107.400 32.348 C 112.211 29.773,121.183 25.275,123.200 24.427 C 124.410 23.917,126.210 23.145,127.200 22.711 C 128.190 22.276,129.360 21.780,129.800 21.608 C 135.980 19.196,139.375 18.000,140.042 18.000 C 140.385 18.000,140.783 17.884,140.925 17.741 C 141.343 17.324,145.325 16.027,146.233 16.013 C 146.692 16.006,147.202 15.865,147.366 15.700 C 147.659 15.408,150.171 14.705,153.400 14.011 C 154.280 13.822,156.080 13.369,157.400 13.004 C 158.720 12.640,160.790 12.181,162.000 11.985 C 163.210 11.788,165.640 11.338,167.400 10.985 C 171.278 10.205,174.987 9.737,181.600 9.192 C 184.350 8.965,187.410 8.624,188.400 8.435 C 190.981 7.940,206.926 7.929,209.953 8.420 M177.000 136.022 C 173.334 136.373,168.896 137.093,168.361 137.424 C 168.161 137.547,167.143 137.796,166.099 137.975 C 164.340 138.278,159.808 139.702,158.387 140.398 C 158.050 140.563,157.197 140.825,156.491 140.980 C 155.786 141.135,155.106 141.428,154.981 141.631 C 154.855 141.834,154.413 142.000,153.998 142.000 C 153.582 142.000,152.396 142.450,151.362 143.000 C 150.327 143.550,149.324 144.000,149.132 144.000 C 148.941 144.000,148.071 144.450,147.200 145.000 C 146.329 145.550,145.429 146.000,145.200 146.000 C 144.971 146.000,144.071 146.450,143.200 147.000 C 142.329 147.550,141.448 148.000,141.242 148.000 C 141.037 148.000,138.828 149.263,136.334 150.806 C 133.840 152.350,131.530 153.727,131.200 153.867 C 130.870 154.007,130.330 154.352,129.999 154.633 C 129.669 154.914,128.949 155.383,128.399 155.674 C 127.850 155.965,123.655 158.722,119.079 161.801 C 114.502 164.881,110.466 167.580,110.110 167.800 C 109.754 168.020,109.054 168.538,108.556 168.951 C 108.057 169.364,107.281 169.904,106.831 170.151 C 105.279 171.003,99.000 175.363,98.867 175.681 C 98.793 175.856,98.556 176.000,98.339 176.000 C 98.014 176.000,91.629 180.330,90.182 181.531 C 89.952 181.723,89.592 181.951,89.382 182.039 C 88.908 182.239,84.274 185.317,84.000 185.615 C 83.890 185.734,81.640 187.255,79.000 188.994 C 76.360 190.733,74.110 192.256,74.000 192.378 C 73.890 192.500,71.913 193.860,69.607 195.400 C 67.301 196.940,63.598 199.460,61.377 201.000 C 59.157 202.540,57.046 203.980,56.686 204.200 C 54.562 205.499,48.979 209.413,48.867 209.681 C 48.793 209.856,48.556 210.000,48.339 210.000 C 48.001 210.000,41.518 214.409,40.117 215.592 C 39.851 215.816,39.527 216.000,39.397 216.000 C 39.142 216.000,34.329 219.245,34.000 219.640 C 33.806 219.872,33.361 220.179,28.750 223.259 C 27.548 224.062,26.326 225.007,26.034 225.359 C 25.741 225.712,25.297 226.000,25.047 226.000 C 24.511 226.000,22.400 227.884,22.400 228.362 C 22.400 228.783,24.407 230.800,24.826 230.800 C 25.000 230.800,25.385 231.042,25.680 231.337 C 25.976 231.633,27.024 232.380,28.009 232.997 C 28.994 233.615,29.890 234.229,30.000 234.363 C 30.209 234.616,48.707 247.100,49.912 247.800 C 50.290 248.020,50.690 248.290,50.800 248.400 C 51.242 248.842,55.977 252.000,56.198 252.000 C 56.328 252.000,56.920 252.450,57.513 253.000 C 58.107 253.550,58.728 254.000,58.894 254.000 C 59.061 254.000,60.458 254.900,62.000 256.000 C 63.542 257.100,64.892 258.000,65.000 258.000 C 65.108 258.000,66.458 258.900,68.000 260.000 C 69.542 261.100,70.892 262.000,71.000 262.000 C 71.108 262.000,72.458 262.900,74.000 264.000 C 77.698 266.639,77.980 266.590,82.400 262.544 C 83.170 261.839,84.250 260.873,84.800 260.398 C 85.350 259.923,88.410 257.064,91.600 254.045 C 94.790 251.026,98.379 247.666,99.575 246.578 C 100.771 245.490,102.403 243.970,103.201 243.200 C 105.263 241.211,109.947 236.837,114.859 232.314 C 117.180 230.176,119.781 227.744,120.639 226.908 C 121.498 226.073,124.354 223.412,126.987 220.995 C 129.620 218.578,132.157 216.240,132.624 215.800 C 133.091 215.360,134.905 213.650,136.656 212.000 C 138.406 210.350,141.179 207.755,142.819 206.234 C 144.459 204.713,148.230 201.184,151.200 198.392 C 154.170 195.600,157.320 192.704,158.200 191.958 C 160.233 190.232,160.244 190.223,163.048 187.600 C 164.341 186.390,166.840 184.144,168.600 182.609 C 170.360 181.074,172.163 179.454,172.607 179.009 C 173.051 178.564,174.569 177.210,175.981 176.000 C 177.393 174.790,179.189 173.191,179.974 172.447 C 180.758 171.703,182.390 170.354,183.600 169.449 C 184.810 168.545,185.890 167.705,186.000 167.584 C 187.267 166.184,199.472 157.822,200.918 157.363 C 202.549 156.845,202.800 157.990,202.802 165.976 C 202.804 174.884,202.091 183.657,201.328 184.120 C 201.005 184.316,200.800 185.210,200.800 186.425 C 200.800 187.517,200.631 188.723,200.425 189.105 C 199.365 191.067,198.000 194.439,198.000 195.095 C 198.000 195.505,197.843 196.011,197.651 196.220 C 197.221 196.690,196.290 199.971,195.388 204.200 C 195.013 205.960,194.547 207.813,194.353 208.319 C 194.159 208.824,194.000 209.781,194.000 210.445 C 194.000 211.109,193.792 212.042,193.537 212.518 C 193.115 213.306,192.846 215.727,192.149 225.036 C 191.898 228.378,192.864 232.000,194.004 232.000 C 194.251 232.000,195.043 232.450,195.764 233.000 C 196.486 233.550,197.190 234.000,197.330 234.000 C 197.470 234.000,199.100 234.720,200.952 235.600 C 202.804 236.480,204.520 237.200,204.765 237.200 C 205.010 237.200,205.523 237.356,205.905 237.546 C 206.685 237.935,208.438 238.551,211.400 239.475 C 212.500 239.819,213.967 240.347,214.660 240.650 C 215.354 240.952,216.198 241.200,216.537 241.200 C 216.876 241.200,217.264 241.380,217.400 241.600 C 217.536 241.820,218.059 242.000,218.562 242.000 C 219.388 242.000,221.000 242.605,222.895 243.626 C 223.277 243.832,223.775 244.000,224.003 244.000 C 224.230 244.000,225.129 244.450,226.000 245.000 C 226.871 245.550,227.771 246.000,228.000 246.000 C 228.229 246.000,229.129 246.450,230.000 247.000 C 230.871 247.550,231.912 248.000,232.312 248.000 C 232.712 248.000,233.265 248.225,233.540 248.500 C 234.181 249.142,240.312 249.173,241.637 248.541 C 242.167 248.288,243.320 247.765,244.200 247.377 C 245.999 246.585,248.930 244.757,249.133 244.300 C 249.207 244.135,249.444 244.000,249.661 244.000 C 249.995 244.000,256.605 239.081,257.200 238.390 C 257.310 238.262,258.120 237.628,259.000 236.982 C 260.695 235.736,266.862 230.802,267.200 230.421 C 267.310 230.297,268.390 229.451,269.600 228.542 C 270.810 227.633,272.166 226.554,272.614 226.144 C 273.595 225.246,275.902 223.352,282.000 218.438 C 290.479 211.604,299.098 204.305,302.767 200.851 C 303.555 200.109,305.007 198.849,305.994 198.051 C 306.980 197.253,308.169 196.240,308.634 195.800 C 309.730 194.765,312.835 191.925,315.608 189.421 C 316.814 188.333,319.870 185.525,322.400 183.182 C 324.930 180.839,327.799 178.219,328.774 177.361 C 329.750 176.502,331.061 175.305,331.688 174.701 C 334.465 172.019,335.880 171.869,337.090 174.128 C 339.286 178.226,340.261 181.239,341.189 186.800 C 342.093 192.220,342.286 193.043,343.011 194.600 C 343.421 195.480,343.856 196.514,343.978 196.897 C 344.408 198.249,348.223 202.710,350.091 204.047 C 351.131 204.791,351.986 205.535,351.991 205.700 C 351.996 205.865,352.184 206.000,352.408 206.000 C 352.632 206.000,353.487 206.410,354.308 206.910 C 355.129 207.411,356.790 208.158,358.000 208.570 C 359.210 208.982,360.397 209.471,360.638 209.657 C 361.295 210.164,371.691 210.286,371.864 209.789 C 371.943 209.562,371.469 209.059,370.810 208.670 C 367.154 206.510,366.151 202.640,366.646 192.600 C 366.841 188.640,366.877 184.320,366.726 183.000 C 366.575 181.680,366.325 179.430,366.171 178.000 C 366.017 176.570,365.760 175.220,365.600 175.000 C 365.441 174.780,365.181 174.061,365.023 173.402 C 364.464 171.074,362.015 166.573,360.119 164.391 C 359.064 163.177,358.008 161.839,357.773 161.418 C 357.361 160.679,356.867 160.317,355.600 159.824 C 355.270 159.696,354.460 159.246,353.800 158.825 C 353.140 158.403,352.034 158.045,351.343 158.029 C 350.616 158.012,349.989 157.747,349.855 157.400 C 349.722 157.053,349.124 156.800,348.436 156.800 C 347.782 156.800,347.136 156.620,347.000 156.400 C 346.864 156.180,346.425 156.000,346.025 156.000 C 345.625 156.000,345.074 155.730,344.800 155.400 C 344.526 155.070,343.784 154.800,343.151 154.800 C 342.518 154.800,342.000 154.620,342.000 154.400 C 342.000 154.180,341.392 154.000,340.649 154.000 C 339.906 154.000,339.093 153.753,338.843 153.451 C 338.121 152.581,335.111 152.257,327.800 152.262 C 319.632 152.268,316.864 152.815,310.400 155.702 C 304.531 158.324,302.916 159.180,298.269 162.136 C 295.447 163.931,292.781 165.602,292.344 165.849 C 291.908 166.096,291.126 166.668,290.606 167.120 C 290.087 167.572,289.153 168.265,288.531 168.661 C 287.909 169.057,287.310 169.477,287.200 169.593 C 287.090 169.709,285.925 170.605,284.611 171.583 C 283.297 172.561,281.947 173.584,281.611 173.856 C 281.275 174.128,279.470 175.543,277.600 177.000 C 275.730 178.457,273.929 179.863,273.599 180.124 C 273.268 180.386,272.189 181.230,271.200 182.000 C 269.422 183.385,268.940 183.780,266.600 185.776 C 265.940 186.339,265.278 186.799,265.129 186.800 C 264.979 186.800,264.619 187.034,264.329 187.321 C 263.316 188.318,232.786 210.000,232.394 210.000 C 232.146 210.000,232.000 206.451,232.000 200.426 C 232.000 194.783,231.830 190.404,231.585 189.761 C 231.299 189.007,231.299 188.541,231.585 188.255 C 231.813 188.027,232.000 186.582,232.000 185.044 C 232.000 182.392,231.822 181.005,230.762 175.400 C 230.513 174.080,230.227 172.460,230.127 171.800 C 230.027 171.140,229.793 170.240,229.607 169.800 C 229.420 169.360,228.942 168.010,228.544 166.800 C 227.762 164.427,224.335 157.508,223.590 156.800 C 223.474 156.690,222.764 155.790,222.011 154.800 C 217.260 148.550,209.932 143.287,200.600 139.424 C 199.720 139.059,198.687 138.590,198.305 138.381 C 197.923 138.171,197.299 138.000,196.919 138.000 C 196.538 138.000,195.501 137.747,194.613 137.438 C 190.611 136.044,183.088 135.439,177.000 136.022 " stroke="none" fill="#2e9d4e" fill-rule="evenodd"></path><path id="path1" d="M0.000 91.000 C 0.000 141.050,0.144 182.000,0.321 182.000 C 0.497 182.000,0.860 179.615,1.128 176.700 C 1.647 171.038,1.918 169.235,3.006 164.200 C 3.387 162.440,3.835 160.190,4.004 159.200 C 4.670 155.281,5.247 152.562,5.572 151.800 C 5.760 151.360,6.210 149.650,6.572 148.000 C 6.934 146.350,7.384 144.550,7.574 144.000 C 7.763 143.450,8.227 141.920,8.605 140.600 C 9.499 137.479,11.126 132.418,11.563 131.400 C 11.752 130.960,12.395 129.340,12.992 127.800 C 14.225 124.621,14.357 124.302,15.812 121.000 C 17.385 117.430,17.934 116.158,18.622 114.500 C 19.819 111.613,24.723 102.361,26.666 99.324 C 27.400 98.177,28.000 97.151,28.000 97.043 C 28.000 96.267,40.525 77.972,42.581 75.746 C 42.811 75.496,44.078 73.966,45.396 72.346 C 46.714 70.726,52.654 64.538,58.596 58.596 C 64.538 52.654,70.726 46.714,72.346 45.396 C 73.966 44.078,75.496 42.811,75.746 42.581 C 77.972 40.525,96.267 28.000,97.043 28.000 C 97.151 28.000,98.177 27.400,99.324 26.666 C 102.361 24.723,111.613 19.819,114.500 18.622 C 116.158 17.934,117.430 17.385,121.000 15.812 C 124.302 14.357,124.621 14.225,127.800 12.992 C 129.340 12.395,130.960 11.752,131.400 11.563 C 132.418 11.126,137.479 9.499,140.600 8.605 C 141.920 8.227,143.450 7.763,144.000 7.574 C 144.550 7.384,146.350 6.934,148.000 6.572 C 149.650 6.210,151.360 5.760,151.800 5.572 C 152.562 5.247,155.281 4.670,159.200 4.004 C 160.190 3.835,162.440 3.387,164.200 3.006 C 168.973 1.975,170.920 1.674,176.200 1.151 C 178.840 0.889,181.171 0.523,181.380 0.338 C 181.589 0.152,140.864 0.000,90.880 0.000 L 0.000 0.000 0.000 91.000 M218.000 0.319 C 218.000 0.608,221.460 1.074,230.600 2.016 C 232.360 2.198,235.150 2.641,236.800 3.002 C 238.450 3.362,240.340 3.746,241.000 3.855 C 243.053 4.194,247.361 5.219,248.200 5.569 C 248.640 5.752,249.990 6.117,251.200 6.380 C 253.421 6.862,256.958 7.807,258.800 8.409 C 259.350 8.589,260.880 9.039,262.200 9.409 C 264.830 10.147,266.368 10.660,268.200 11.413 C 268.860 11.684,270.030 12.134,270.800 12.413 C 272.784 13.132,277.491 15.097,282.200 17.174 C 283.080 17.563,284.610 18.217,285.600 18.629 C 288.734 19.933,297.291 24.480,300.708 26.657 C 301.867 27.396,302.907 28.000,303.019 28.000 C 303.430 28.000,310.705 32.725,314.297 35.325 C 316.330 36.796,318.160 38.000,318.363 38.000 C 318.567 38.000,318.793 38.146,318.867 38.325 C 318.940 38.504,320.080 39.434,321.400 40.393 C 322.720 41.352,324.876 43.050,326.191 44.168 C 327.506 45.286,329.036 46.557,329.591 46.993 C 332.459 49.248,350.629 67.651,354.143 71.860 C 365.494 85.457,376.750 103.244,382.019 115.909 C 382.726 117.609,383.741 119.990,384.275 121.200 C 385.266 123.447,385.423 123.812,386.586 126.600 C 386.954 127.480,387.407 128.560,387.595 129.000 C 389.222 132.819,392.324 142.958,394.019 150.000 C 394.205 150.770,394.641 152.570,394.990 154.000 C 395.338 155.430,395.790 157.680,395.993 159.000 C 396.196 160.320,396.661 162.660,397.027 164.200 C 397.934 168.023,398.310 170.542,398.847 176.400 C 399.099 179.150,399.461 181.571,399.652 181.780 C 399.849 181.995,400.000 142.683,400.000 91.080 L 400.000 0.000 309.000 0.000 C 258.950 0.000,218.000 0.144,218.000 0.319 M188.400 8.435 C 187.410 8.624,184.350 8.965,181.600 9.192 C 174.987 9.737,171.278 10.205,167.400 10.985 C 165.640 11.338,163.210 11.788,162.000 11.985 C 160.790 12.181,158.720 12.640,157.400 13.004 C 156.080 13.369,154.280 13.822,153.400 14.011 C 150.171 14.705,147.659 15.408,147.366 15.700 C 147.202 15.865,146.692 16.006,146.233 16.013 C 145.325 16.027,141.343 17.324,140.925 17.741 C 140.783 17.884,140.385 18.000,140.042 18.000 C 139.375 18.000,135.980 19.196,129.800 21.608 C 129.360 21.780,128.190 22.276,127.200 22.711 C 126.210 23.145,124.410 23.917,123.200 24.427 C 121.183 25.275,112.211 29.773,107.400 32.348 C 104.369 33.970,100.486 36.334,97.681 38.265 C 96.295 39.219,95.068 40.000,94.954 40.000 C 94.840 40.000,94.157 40.450,93.436 41.000 C 92.714 41.550,91.931 42.000,91.696 42.000 C 91.460 42.000,91.207 42.147,91.133 42.327 C 91.060 42.508,89.290 43.899,87.200 45.419 C 82.848 48.585,79.701 51.066,77.396 53.150 C 76.513 53.947,74.533 55.670,72.996 56.978 C 67.028 62.054,54.722 75.031,51.013 80.159 C 50.360 81.061,49.717 81.890,49.584 82.000 C 49.101 82.401,45.317 87.434,44.868 88.273 C 44.613 88.749,44.179 89.380,43.903 89.676 C 42.759 90.902,35.996 101.266,35.077 103.202 C 34.921 103.531,34.464 104.340,34.062 105.000 C 32.689 107.255,30.652 110.998,29.382 113.600 C 25.878 120.776,24.000 124.791,24.000 125.104 C 24.000 125.294,23.550 126.383,23.000 127.523 C 22.450 128.663,22.000 129.856,22.000 130.174 C 22.000 130.493,21.820 130.864,21.600 131.000 C 21.380 131.136,21.200 131.524,21.200 131.863 C 21.200 132.202,20.947 133.046,20.639 133.740 C 19.807 135.607,18.185 140.266,17.415 143.000 C 17.043 144.320,16.586 145.760,16.400 146.200 C 16.213 146.640,15.974 147.450,15.870 148.000 C 15.765 148.550,15.377 149.990,15.008 151.200 C 14.639 152.410,14.249 154.030,14.141 154.800 C 14.034 155.570,13.835 156.470,13.699 156.800 C 13.394 157.545,12.479 161.532,12.000 164.200 C 11.008 169.731,10.319 174.110,9.987 177.000 C 9.785 178.760,9.529 180.740,9.419 181.400 C 8.100 189.320,8.934 224.133,10.536 228.000 C 10.673 228.330,10.962 229.860,11.179 231.400 C 11.935 236.753,13.133 242.767,13.629 243.695 C 13.833 244.077,14.000 244.763,14.000 245.219 C 14.000 245.676,14.281 246.984,14.624 248.125 C 14.967 249.266,15.432 250.920,15.657 251.800 C 16.463 254.948,17.370 257.806,17.682 258.180 C 17.857 258.389,18.000 258.953,18.000 259.434 C 18.000 259.915,18.269 260.824,18.598 261.454 C 18.926 262.084,19.196 262.904,19.198 263.276 C 19.199 263.648,19.380 264.064,19.600 264.200 C 19.820 264.336,20.000 264.851,20.000 265.344 C 20.000 265.837,20.150 266.411,20.334 266.620 C 20.518 266.829,20.985 267.900,21.372 269.000 C 21.759 270.100,22.341 271.630,22.665 272.400 C 22.989 273.170,23.399 274.160,23.575 274.600 C 25.050 278.272,31.166 290.732,31.637 291.023 C 31.837 291.146,32.000 291.597,32.000 292.024 C 32.000 292.451,32.145 292.800,32.323 292.800 C 32.501 292.800,32.956 293.503,33.335 294.362 C 33.714 295.222,34.469 296.580,35.012 297.380 C 35.556 298.181,36.000 298.927,36.000 299.040 C 36.000 299.152,36.900 300.609,38.000 302.277 C 39.100 303.946,40.000 305.384,40.000 305.472 C 40.000 305.561,40.177 305.851,40.394 306.117 C 40.611 306.383,42.705 309.300,45.047 312.600 C 47.389 315.900,49.427 318.690,49.576 318.800 C 49.724 318.910,51.088 320.530,52.607 322.400 C 54.126 324.270,55.556 325.997,55.784 326.237 C 56.013 326.477,57.730 328.357,59.600 330.415 C 63.523 334.731,64.797 336.024,68.655 339.600 C 73.557 344.143,75.359 345.754,77.608 347.599 C 78.813 348.588,80.160 349.703,80.600 350.076 C 82.244 351.470,92.705 359.088,94.621 360.287 C 95.050 360.555,97.200 361.919,99.400 363.318 C 101.600 364.717,104.390 366.388,105.600 367.031 C 106.810 367.674,107.890 368.290,108.000 368.400 C 108.392 368.792,117.043 373.182,120.800 374.896 C 122.010 375.447,123.993 376.372,125.206 376.949 C 126.419 377.527,127.636 378.000,127.911 378.000 C 128.186 378.000,128.723 378.171,129.105 378.381 C 129.487 378.590,130.520 379.055,131.400 379.414 C 132.280 379.773,133.313 380.232,133.695 380.434 C 134.077 380.635,134.589 380.800,134.834 380.800 C 135.079 380.800,135.846 381.049,136.540 381.354 C 137.233 381.658,138.880 382.221,140.200 382.605 C 141.520 382.989,142.771 383.460,142.980 383.651 C 143.189 383.843,143.834 384.000,144.413 384.000 C 144.993 384.000,145.595 384.129,145.753 384.286 C 146.070 384.603,148.933 385.462,151.400 385.980 C 152.280 386.165,153.990 386.619,155.200 386.989 C 156.410 387.358,158.300 387.814,159.400 388.001 C 160.500 388.188,162.750 388.634,164.400 388.992 C 167.858 389.742,170.690 390.177,175.913 390.761 C 177.955 390.989,180.385 391.391,181.313 391.653 C 183.684 392.322,217.003 392.309,219.787 391.637 C 220.879 391.374,223.399 390.974,225.387 390.750 C 231.843 390.021,234.152 389.673,237.000 389.000 C 238.540 388.636,240.700 388.187,241.800 388.001 C 242.900 387.815,244.880 387.365,246.200 387.002 C 247.520 386.638,249.230 386.183,250.000 385.991 C 250.770 385.798,252.390 385.342,253.600 384.976 C 254.810 384.610,256.340 384.218,257.000 384.105 C 257.660 383.992,258.380 383.767,258.600 383.605 C 258.820 383.443,260.080 382.994,261.400 382.609 C 262.720 382.223,264.340 381.685,265.000 381.414 C 265.660 381.142,266.830 380.692,267.600 380.413 C 268.866 379.955,270.338 379.364,272.600 378.408 C 273.040 378.221,274.762 377.522,276.427 376.853 C 279.241 375.723,281.228 374.809,284.200 373.277 C 284.860 372.937,285.670 372.536,286.000 372.387 C 286.330 372.237,287.230 371.787,288.000 371.387 C 288.770 370.986,289.760 370.483,290.200 370.267 C 290.640 370.052,291.270 369.729,291.600 369.549 C 291.930 369.369,292.830 368.912,293.600 368.532 C 294.370 368.152,295.090 367.724,295.200 367.581 C 295.310 367.437,296.480 366.728,297.800 366.005 C 299.120 365.281,301.787 363.634,303.726 362.345 C 305.666 361.055,307.338 360.000,307.443 360.000 C 307.548 360.000,307.851 359.817,308.117 359.593 C 308.383 359.369,310.670 357.724,313.200 355.937 C 315.730 354.149,317.890 352.565,318.000 352.416 C 318.110 352.266,319.190 351.414,320.400 350.523 C 321.610 349.631,323.230 348.294,324.000 347.551 C 324.770 346.808,326.390 345.407,327.600 344.439 C 330.270 342.302,343.099 329.433,345.595 326.389 C 346.581 325.185,347.482 324.110,347.597 324.000 C 347.711 323.890,348.549 322.810,349.458 321.600 C 350.367 320.390,351.448 319.040,351.859 318.600 C 352.271 318.160,353.231 316.990,353.993 316.000 C 354.756 315.010,355.492 314.110,355.629 314.000 C 355.766 313.890,356.663 312.540,357.621 311.000 C 358.580 309.460,359.480 308.110,359.621 308.000 C 359.763 307.890,360.666 306.540,361.629 305.000 C 362.592 303.460,363.667 301.886,364.018 301.501 C 364.369 301.117,365.054 300.037,365.540 299.101 C 366.026 298.166,367.133 296.140,368.000 294.600 C 368.867 293.060,369.975 290.945,370.463 289.900 C 370.951 288.855,371.496 288.000,371.675 288.000 C 371.854 288.000,372.000 287.726,372.000 287.392 C 372.000 287.058,372.450 286.071,373.000 285.200 C 373.550 284.329,374.000 283.511,374.000 283.383 C 374.000 283.255,374.468 282.127,375.039 280.875 C 376.024 278.720,376.857 276.790,377.575 275.000 C 377.752 274.560,378.352 273.210,378.909 272.000 C 380.313 268.947,382.000 264.317,382.000 263.515 C 382.000 263.148,382.180 262.736,382.400 262.600 C 382.620 262.464,382.800 262.010,382.800 261.590 C 382.800 261.170,383.055 260.236,383.367 259.514 C 383.679 258.791,384.242 257.120,384.618 255.800 C 384.995 254.480,385.460 253.229,385.651 253.020 C 385.843 252.811,386.000 252.076,386.000 251.387 C 386.000 250.697,386.132 250.001,386.294 249.840 C 386.568 249.565,387.111 247.453,388.000 243.200 C 388.207 242.210,388.665 240.230,389.018 238.800 C 389.370 237.370,389.817 235.030,390.010 233.600 C 390.204 232.170,390.544 229.650,390.766 228.000 C 390.989 226.350,391.346 224.190,391.560 223.200 C 393.260 215.334,392.927 186.798,390.984 173.800 C 390.622 171.380,390.175 168.320,389.991 167.000 C 389.806 165.680,389.367 163.430,389.015 162.000 C 388.663 160.570,388.281 158.770,388.167 158.000 C 388.052 157.230,387.709 155.700,387.403 154.600 C 387.098 153.500,386.642 151.790,386.389 150.800 C 385.602 147.720,383.226 139.951,382.413 137.800 C 382.247 137.360,381.885 136.280,381.609 135.400 C 381.334 134.520,380.859 133.215,380.554 132.500 C 379.453 129.917,378.911 128.575,378.412 127.200 C 378.133 126.430,377.451 124.810,376.898 123.600 C 376.344 122.390,375.664 120.860,375.387 120.200 C 374.276 117.556,372.583 114.192,372.300 114.067 C 372.135 113.993,372.000 113.599,372.000 113.190 C 372.000 112.782,371.836 112.346,371.635 112.221 C 371.434 112.097,370.839 111.142,370.313 110.098 C 369.787 109.054,368.752 107.120,368.013 105.800 C 367.274 104.480,366.320 102.770,365.893 102.000 C 365.466 101.230,364.415 99.567,363.558 98.305 C 362.701 97.042,362.000 95.914,362.000 95.798 C 362.000 95.683,361.145 94.376,360.100 92.894 C 359.055 91.412,358.020 89.910,357.800 89.556 C 356.682 87.756,354.185 84.434,351.670 81.400 C 351.305 80.960,349.849 79.160,348.435 77.400 C 344.516 72.525,334.167 61.748,329.400 57.578 C 327.557 55.966,322.294 51.457,320.592 50.031 C 316.232 46.379,305.138 38.835,297.410 34.267 C 296.975 34.010,295.715 33.257,294.610 32.594 C 291.704 30.850,280.928 25.604,275.800 23.437 C 274.920 23.065,273.887 22.590,273.505 22.381 C 273.123 22.171,272.566 22.000,272.267 22.000 C 271.761 22.000,269.923 21.246,268.305 20.374 C 267.923 20.168,267.284 20.000,266.885 20.000 C 266.486 20.000,265.989 19.850,265.780 19.666 C 265.206 19.162,259.040 17.168,252.600 15.403 C 251.280 15.042,249.787 14.578,249.281 14.373 C 248.776 14.168,247.861 14.000,247.248 14.000 C 246.635 14.000,245.999 13.865,245.835 13.700 C 245.535 13.399,242.333 12.654,238.600 12.018 C 237.500 11.830,234.980 11.366,233.000 10.988 C 228.210 10.071,224.922 9.679,218.153 9.219 C 215.047 9.007,211.357 8.648,209.953 8.420 C 206.926 7.929,190.981 7.940,188.400 8.435 M190.800 136.450 C 192.010 136.684,193.726 137.129,194.613 137.438 C 195.501 137.747,196.538 138.000,196.919 138.000 C 197.299 138.000,197.923 138.171,198.305 138.381 C 198.687 138.590,199.720 139.059,200.600 139.424 C 209.932 143.287,217.260 148.550,222.011 154.800 C 222.764 155.790,223.474 156.690,223.590 156.800 C 224.335 157.508,227.762 164.427,228.544 166.800 C 228.942 168.010,229.420 169.360,229.607 169.800 C 229.793 170.240,230.027 171.140,230.127 171.800 C 230.227 172.460,230.513 174.080,230.762 175.400 C 231.822 181.005,232.000 182.392,232.000 185.044 C 232.000 186.582,231.813 188.027,231.585 188.255 C 231.299 188.541,231.299 189.007,231.585 189.761 C 231.830 190.404,232.000 194.783,232.000 200.426 C 232.000 206.451,232.146 210.000,232.394 210.000 C 232.786 210.000,263.316 188.318,264.329 187.321 C 264.619 187.034,264.979 186.800,265.129 186.800 C 265.278 186.799,265.940 186.339,266.600 185.776 C 268.940 183.780,269.422 183.385,271.200 182.000 C 272.189 181.230,273.268 180.386,273.599 180.124 C 273.929 179.863,275.730 178.457,277.600 177.000 C 279.470 175.543,281.275 174.128,281.611 173.856 C 281.947 173.584,283.297 172.561,284.611 171.583 C 285.925 170.605,287.090 169.709,287.200 169.593 C 287.310 169.477,287.909 169.057,288.531 168.661 C 289.153 168.265,290.087 167.572,290.606 167.120 C 291.126 166.668,291.908 166.096,292.344 165.849 C 292.781 165.602,295.447 163.931,298.269 162.136 C 301.091 160.341,304.570 158.340,306.000 157.689 C 317.135 152.623,318.558 152.268,327.800 152.262 C 335.111 152.257,338.121 152.581,338.843 153.451 C 339.093 153.753,339.906 154.000,340.649 154.000 C 341.392 154.000,342.000 154.180,342.000 154.400 C 342.000 154.620,342.518 154.800,343.151 154.800 C 343.784 154.800,344.526 155.070,344.800 155.400 C 345.074 155.730,345.625 156.000,346.025 156.000 C 346.425 156.000,346.864 156.180,347.000 156.400 C 347.136 156.620,347.782 156.800,348.436 156.800 C 349.124 156.800,349.722 157.053,349.855 157.400 C 349.989 157.747,350.616 158.012,351.343 158.029 C 352.034 158.045,353.140 158.403,353.800 158.825 C 354.460 159.246,355.270 159.696,355.600 159.824 C 356.867 160.317,357.361 160.679,357.773 161.418 C 358.008 161.839,359.064 163.177,360.119 164.391 C 362.015 166.573,364.464 171.074,365.023 173.402 C 365.181 174.061,365.441 174.780,365.600 175.000 C 365.760 175.220,366.017 176.570,366.171 178.000 C 366.325 179.430,366.575 181.680,366.726 183.000 C 366.877 184.320,366.841 188.640,366.646 192.600 C 366.151 202.640,367.154 206.510,370.810 208.670 C 371.469 209.059,371.943 209.562,371.864 209.789 C 371.691 210.286,361.295 210.164,360.638 209.657 C 360.397 209.471,359.210 208.982,358.000 208.570 C 356.790 208.158,355.129 207.411,354.308 206.910 C 353.487 206.410,352.632 206.000,352.408 206.000 C 352.184 206.000,351.996 205.865,351.991 205.700 C 351.986 205.535,351.131 204.791,350.091 204.047 C 348.223 202.710,344.408 198.249,343.978 196.897 C 343.856 196.514,343.421 195.480,343.011 194.600 C 342.286 193.043,342.093 192.220,341.189 186.800 C 340.261 181.239,339.286 178.226,337.090 174.128 C 335.880 171.869,334.465 172.019,331.688 174.701 C 331.061 175.305,329.750 176.502,328.774 177.361 C 327.799 178.219,324.930 180.839,322.400 183.182 C 319.870 185.525,316.814 188.333,315.608 189.421 C 312.835 191.925,309.730 194.765,308.634 195.800 C 308.169 196.240,306.980 197.253,305.994 198.051 C 305.007 198.849,303.555 200.109,302.767 200.851 C 299.098 204.305,290.479 211.604,282.000 218.438 C 275.902 223.352,273.595 225.246,272.614 226.144 C 272.166 226.554,270.810 227.633,269.600 228.542 C 268.390 229.451,267.310 230.297,267.200 230.421 C 266.862 230.802,260.695 235.736,259.000 236.982 C 258.120 237.628,257.310 238.262,257.200 238.390 C 256.605 239.081,249.995 244.000,249.661 244.000 C 249.444 244.000,249.207 244.135,249.133 244.300 C 248.930 244.757,245.999 246.585,244.200 247.377 C 243.320 247.765,242.167 248.288,241.637 248.541 C 240.312 249.173,234.181 249.142,233.540 248.500 C 233.265 248.225,232.712 248.000,232.312 248.000 C 231.912 248.000,230.871 247.550,230.000 247.000 C 229.129 246.450,228.229 246.000,228.000 246.000 C 227.771 246.000,226.871 245.550,226.000 245.000 C 225.129 244.450,224.230 244.000,224.003 244.000 C 223.775 244.000,223.277 243.832,222.895 243.626 C 221.000 242.605,219.388 242.000,218.562 242.000 C 218.059 242.000,217.536 241.820,217.400 241.600 C 217.264 241.380,216.876 241.200,216.537 241.200 C 216.198 241.200,215.354 240.952,214.660 240.650 C 213.967 240.347,212.500 239.819,211.400 239.475 C 208.438 238.551,206.685 237.935,205.905 237.546 C 205.523 237.356,205.010 237.200,204.765 237.200 C 204.520 237.200,202.804 236.480,200.952 235.600 C 199.100 234.720,197.470 234.000,197.330 234.000 C 197.190 234.000,196.486 233.550,195.764 233.000 C 195.043 232.450,194.251 232.000,194.004 232.000 C 192.864 232.000,191.898 228.378,192.149 225.036 C 192.846 215.727,193.115 213.306,193.537 212.518 C 193.792 212.042,194.000 211.109,194.000 210.445 C 194.000 209.781,194.159 208.824,194.353 208.319 C 194.547 207.813,195.013 205.960,195.388 204.200 C 196.290 199.971,197.221 196.690,197.651 196.220 C 197.843 196.011,198.000 195.505,198.000 195.095 C 198.000 194.439,199.365 191.067,200.425 189.105 C 200.631 188.723,200.800 187.517,200.800 186.425 C 200.800 185.210,201.005 184.316,201.328 184.120 C 202.091 183.657,202.804 174.884,202.802 165.976 C 202.800 157.990,202.549 156.845,200.918 157.363 C 199.472 157.822,187.267 166.184,186.000 167.584 C 185.890 167.705,184.810 168.545,183.600 169.449 C 182.390 170.354,180.758 171.703,179.974 172.447 C 179.189 173.191,177.393 174.790,175.981 176.000 C 174.569 177.210,173.051 178.564,172.607 179.009 C 172.163 179.454,170.360 181.074,168.600 182.609 C 166.840 184.144,164.341 186.390,163.048 187.600 C 160.244 190.223,160.233 190.232,158.200 191.958 C 157.320 192.704,154.170 195.600,151.200 198.392 C 148.230 201.184,144.459 204.713,142.819 206.234 C 141.179 207.755,138.406 210.350,136.656 212.000 C 134.905 213.650,133.091 215.360,132.624 215.800 C 132.157 216.240,129.620 218.578,126.987 220.995 C 124.354 223.412,121.498 226.073,120.639 226.908 C 119.781 227.744,117.180 230.176,114.859 232.314 C 109.947 236.837,105.263 241.211,103.201 243.200 C 102.403 243.970,100.771 245.490,99.575 246.578 C 98.379 247.666,94.790 251.026,91.600 254.045 C 88.410 257.064,85.350 259.923,84.800 260.398 C 84.250 260.873,83.170 261.839,82.400 262.544 C 77.980 266.590,77.698 266.639,74.000 264.000 C 72.458 262.900,71.108 262.000,71.000 262.000 C 70.892 262.000,69.542 261.100,68.000 260.000 C 66.458 258.900,65.108 258.000,65.000 258.000 C 64.892 258.000,63.542 257.100,62.000 256.000 C 60.458 254.900,59.061 254.000,58.894 254.000 C 58.728 254.000,58.107 253.550,57.513 253.000 C 56.920 252.450,56.328 252.000,56.198 252.000 C 55.977 252.000,51.242 248.842,50.800 248.400 C 50.690 248.290,50.290 248.020,49.912 247.800 C 48.707 247.100,30.209 234.616,30.000 234.363 C 29.890 234.229,28.994 233.615,28.009 232.997 C 27.024 232.380,25.976 231.633,25.680 231.337 C 25.385 231.042,25.000 230.800,24.826 230.800 C 24.407 230.800,22.400 228.783,22.400 228.362 C 22.400 227.884,24.511 226.000,25.047 226.000 C 25.297 226.000,25.741 225.712,26.034 225.359 C 26.326 225.007,27.548 224.062,28.750 223.259 C 33.361 220.179,33.806 219.872,34.000 219.640 C 34.329 219.245,39.142 216.000,39.397 216.000 C 39.527 216.000,39.851 215.816,40.117 215.592 C 41.518 214.409,48.001 210.000,48.339 210.000 C 48.556 210.000,48.793 209.856,48.867 209.681 C 48.979 209.413,54.562 205.499,56.686 204.200 C 57.046 203.980,59.157 202.540,61.377 201.000 C 63.598 199.460,67.301 196.940,69.607 195.400 C 71.913 193.860,73.890 192.500,74.000 192.378 C 74.110 192.256,76.360 190.733,79.000 188.994 C 81.640 187.255,83.890 185.734,84.000 185.615 C 84.274 185.317,88.908 182.239,89.382 182.039 C 89.592 181.951,89.952 181.723,90.182 181.531 C 91.629 180.330,98.014 176.000,98.339 176.000 C 98.556 176.000,98.793 175.856,98.867 175.681 C 99.000 175.363,105.279 171.003,106.831 170.151 C 107.281 169.904,108.057 169.364,108.556 168.951 C 109.054 168.538,109.754 168.020,110.110 167.800 C 110.466 167.580,114.502 164.881,119.079 161.801 C 123.655 158.722,127.850 155.965,128.399 155.674 C 128.949 155.383,129.669 154.914,129.999 154.633 C 130.330 154.352,130.870 154.007,131.200 153.867 C 131.530 153.727,133.840 152.350,136.334 150.806 C 138.828 149.263,141.037 148.000,141.242 148.000 C 141.448 148.000,142.329 147.550,143.200 147.000 C 144.071 146.450,144.971 146.000,145.200 146.000 C 145.429 146.000,146.329 145.550,147.200 145.000 C 148.071 144.450,148.941 144.000,149.132 144.000 C 149.324 144.000,150.327 143.550,151.362 143.000 C 152.396 142.450,153.582 142.000,153.998 142.000 C 154.413 142.000,154.855 141.834,154.981 141.631 C 155.106 141.428,155.786 141.135,156.491 140.980 C 157.197 140.825,158.050 140.563,158.387 140.398 C 159.808 139.702,164.340 138.278,166.099 137.975 C 167.143 137.796,168.161 137.547,168.361 137.424 C 170.654 136.007,185.243 135.374,190.800 136.450 M0.000 309.000 L 0.000 400.000 91.080 400.000 C 142.683 400.000,181.995 399.849,181.780 399.652 C 181.571 399.461,179.150 399.099,176.400 398.847 C 170.542 398.310,168.023 397.934,164.200 397.027 C 162.660 396.661,160.320 396.196,159.000 395.993 C 157.680 395.790,155.430 395.338,154.000 394.990 C 152.570 394.641,150.770 394.205,150.000 394.019 C 142.454 392.203,133.084 389.303,128.400 387.334 C 127.630 387.011,126.640 386.602,126.200 386.426 C 125.208 386.030,124.024 385.521,121.200 384.275 C 119.990 383.741,117.609 382.726,115.909 382.019 C 103.244 376.750,85.457 365.494,71.860 354.143 C 67.651 350.629,49.248 332.459,46.993 329.591 C 46.557 329.036,45.286 327.506,44.168 326.191 C 43.050 324.876,41.352 322.720,40.393 321.400 C 39.434 320.080,38.504 318.940,38.325 318.867 C 38.146 318.793,38.000 318.567,38.000 318.363 C 38.000 318.160,36.796 316.330,35.325 314.297 C 32.725 310.705,28.000 303.430,28.000 303.019 C 28.000 302.907,27.396 301.867,26.657 300.708 C 24.480 297.291,19.933 288.734,18.629 285.600 C 18.217 284.610,17.563 283.080,17.174 282.200 C 15.097 277.491,13.132 272.784,12.413 270.800 C 12.134 270.030,11.677 268.860,11.396 268.200 C 11.115 267.540,10.402 265.380,9.812 263.400 C 9.221 261.420,8.590 259.350,8.410 258.800 C 7.811 256.973,6.864 253.428,6.380 251.200 C 6.117 249.990,5.752 248.640,5.569 248.200 C 5.219 247.361,4.194 243.053,3.855 241.000 C 3.746 240.340,3.362 238.450,3.002 236.800 C 2.641 235.150,2.198 232.360,2.016 230.600 C 1.074 221.460,0.608 218.000,0.319 218.000 C 0.144 218.000,0.000 258.950,0.000 309.000 M399.417 218.500 C 399.330 218.775,399.049 220.980,398.791 223.400 C 398.533 225.820,398.167 229.240,397.977 231.000 C 397.786 232.760,397.351 235.460,397.009 237.000 C 396.668 238.540,396.287 240.430,396.163 241.200 C 395.909 242.781,394.970 247.092,394.421 249.200 C 393.765 251.716,392.743 255.379,392.412 256.400 C 392.234 256.950,391.594 259.020,390.990 261.000 C 389.247 266.712,387.362 271.904,386.381 273.695 C 386.171 274.077,386.000 274.559,386.000 274.767 C 386.000 274.974,385.479 276.282,384.843 277.672 C 384.207 279.062,383.004 281.820,382.170 283.800 C 380.741 287.194,378.046 292.623,376.015 296.200 C 372.325 302.700,367.134 311.180,365.824 312.850 C 364.629 314.373,363.537 315.887,362.400 317.600 C 354.017 330.226,330.226 354.017,317.600 362.400 C 315.887 363.537,314.373 364.629,312.850 365.824 C 311.180 367.134,302.700 372.325,296.200 376.015 C 291.009 378.963,283.835 382.288,273.200 386.676 C 272.430 386.994,271.440 387.407,271.000 387.595 C 269.548 388.213,264.659 389.873,261.000 390.990 C 259.020 391.594,256.950 392.234,256.400 392.412 C 255.379 392.743,251.716 393.765,249.200 394.421 C 247.092 394.970,242.781 395.909,241.200 396.163 C 240.430 396.287,238.540 396.668,237.000 397.009 C 234.294 397.610,233.156 397.759,223.200 398.817 C 220.670 399.086,218.429 399.462,218.220 399.653 C 218.005 399.849,257.416 400.000,308.920 400.000 L 400.000 400.000 400.000 309.000 C 400.000 258.950,399.904 218.000,399.787 218.000 C 399.671 218.000,399.504 218.225,399.417 218.500 " stroke="none" fill="#fbfbfb" fill-rule="evenodd"></path></g></svg>